<?xml version="1.0" encoding="UTF-8"?>
<svg version="1.1" xmlns="http://www.w3.org/2000/svg" width="3464" height="3464">
<path d="M0 0 C1.26962585 0.00060425 2.53925171 0.0012085 3.84735107 0.00183105 C24.08202835 0.02782293 44.19429382 0.47350109 64.3706665 2.00390625 C66.99588925 2.20128846 69.62164947 2.39010334 72.24755859 2.578125 C142.57128477 7.66143832 211.84804097 18.28513012 279.8125 37.1875 C280.59860657 37.40577454 281.38471313 37.62404907 282.19464111 37.84893799 C315.12368325 47.01046032 347.76208652 56.91677219 379.43554688 69.82421875 C384.12171398 71.71603173 388.83493387 73.53566171 393.54736328 75.36083984 C414.72673129 83.58457425 435.31269069 92.76935655 455.74121094 102.70263672 C458.71856005 104.14208325 461.70448283 105.56146189 464.6953125 106.97265625 C474.59493785 111.64736302 484.41130386 116.44868905 494.125 121.5 C495.51162842 122.21929688 495.51162842 122.21929688 496.92626953 122.953125 C502.1881744 125.71459715 507.30346742 128.64735662 512.38061523 131.73413086 C516.25115825 134.04728642 520.22064949 136.17036039 524.1875 138.3125 C537.81581313 145.75115359 551.18920565 153.59515154 564.02734375 162.33496094 C569.28931988 165.89834413 574.69753524 169.19598488 580.125 172.5 C589.31021969 178.11921269 598.0159245 184.2271363 606.67138672 190.62304688 C609.43464383 192.64208354 612.23875751 194.59860773 615.04760742 196.5534668 C629.3871104 206.53837162 643.20479864 217.23164481 656.8125 228.1875 C658.39568798 229.45851441 659.97900365 230.72936979 661.5625 232 C662.38492188 232.66 663.20734375 233.32 664.0546875 234 C666.07038796 235.59885589 668.09437299 237.1807159 670.1328125 238.75 C676.50004864 243.66656295 682.61652217 248.70586584 688.48828125 254.20678711 C691.6221557 257.13281317 694.84002843 259.88452274 698.1875 262.5625 C703.28708032 266.66578026 708.06170879 271.05263165 712.8293457 275.53076172 C715.79435589 278.3156411 718.77178887 281.05566271 721.875 283.6875 C726.15485346 287.36909437 730.06425853 291.4140261 734.03100586 295.42529297 C736.91694599 298.33178404 739.81713457 301.15441093 742.9375 303.8125 C749.41570667 309.33198687 755.55931811 315.44402831 761.0625 321.9375 C764.58886887 326.08012751 768.45053567 329.8619121 772.3125 333.6875 C777.35980683 338.69705402 782.25165427 343.72648735 786.8125 349.1875 C788.70255676 351.42160616 790.60030545 353.64908618 792.5 355.875 C793.27077881 356.78004272 793.27077881 356.78004272 794.05712891 357.70336914 C797.56369751 361.79726354 801.18164303 365.76225692 804.875 369.6875 C809.90538843 375.05813153 814.47171371 380.68974927 818.9609375 386.515625 C822.02504947 390.48801964 825.19755135 394.36809949 828.375 398.25 C838.33290304 410.46208412 847.74537871 423.05447491 857.04541016 435.77197266 C858.18916509 437.33543097 859.33456608 438.897687 860.48193359 440.45849609 C871.73449031 455.77212591 882.46660217 471.45414828 892.35424805 487.68798828 C894.50915216 491.20426928 896.78849755 494.587072 899.18359375 497.9453125 C902.92302352 503.24714456 906.2055864 508.75318606 909.4375 514.375 C910.03723633 515.41092285 910.63697266 516.4468457 911.25488281 517.51416016 C917.02413953 527.50220475 922.71352525 537.53522297 928.35449219 547.59619141 C929.6665199 549.92805044 930.99064894 552.2523887 932.3203125 554.57421875 C940.09413946 568.23223473 947.01944458 582.32739956 953.94732666 596.42718506 C954.74650717 598.05322844 955.54772282 599.67827115 956.34912109 601.30322266 C968.44292009 625.89631616 978.9999321 651.07513586 988.71191406 676.68824768 C990.21462307 680.64435849 991.75623946 684.58262768 993.328125 688.51171875 C1005.08247892 718.04509344 1014.27148586 748.56030385 1022.70556641 779.18701172 C1023.7328026 782.91380451 1024.79311548 786.63071345 1025.85546875 790.34765625 C1044.65810949 857.17716106 1054.49022234 927.9075405 1058.68603516 997.10321045 C1058.77140376 998.51018554 1058.86002361 999.9169666 1058.95166016 1001.32354736 C1060.14524713 1020.00410633 1060.06103488 1038.72694166 1060.0625 1057.4375 C1060.06264729 1058.30163261 1060.06279457 1059.16576523 1060.06294632 1060.05608368 C1060.04782729 1156.04584591 1048.24030808 1253.63995761 1017.87353516 1355.70849609 C1016.73186656 1359.45188713 1015.61973795 1363.20359299 1014.51171875 1366.95703125 C1007.06910729 1392.08692785 999.43029456 1417.41055678 988.859375 1441.42578125 C985.75568621 1448.51706225 983.04077474 1455.77248665 980.28295898 1463.00366211 C972.5428093 1483.00734835 963.43646123 1502.42409146 953.96069336 1521.65454102 C952.37189352 1524.88130911 950.79388482 1528.11319747 949.21679688 1531.34570312 C940.44834255 1549.2459106 931.12585327 1566.82805345 921 1584 C920.42797852 1584.97445068 919.85595703 1585.94890137 919.26660156 1586.95288086 C917.45388138 1590.03425955 915.6341746 1593.11140766 913.8125 1596.1875 C913.17844238 1597.26064453 912.54438477 1598.33378906 911.89111328 1599.43945312 C899.21428207 1620.86275815 899.21428207 1620.86275815 892.30322266 1631.0065918 C889.38830048 1635.28564907 886.64690935 1639.65096417 883.9375 1644.0625 C875.51929563 1657.67828906 865.92277758 1670.49324935 856.39453125 1683.34375 C853.97894231 1686.60238543 851.58200574 1689.8735567 849.19921875 1693.15625 C843.61948789 1700.82695633 837.9979054 1708.36940367 831.78881836 1715.54394531 C828.47038985 1719.3794441 825.30445721 1723.31179119 822.1875 1727.3125 C815.21536256 1736.2389857 808.13248405 1744.94324215 800.39038086 1753.21557617 C796.95195142 1756.904764 793.66143841 1760.68523682 790.4375 1764.5625 C781.58842344 1775.16332595 772.00762278 1785.07543542 762.19140625 1794.77734375 C760.14023041 1796.85546443 758.20834024 1798.96896355 756.3125 1801.1875 C750.71647673 1807.72290367 744.55749808 1813.92753382 738 1819.5 C734.05842162 1822.85643685 730.45163827 1826.5111156 726.8125 1830.1875 C721.97038682 1835.06888212 717.08546666 1839.76960902 711.8125 1844.1875 C709.57889986 1846.07814868 707.35118994 1847.97563433 705.125 1849.875 C704.51954346 1850.39022217 703.91408691 1850.90544434 703.2902832 1851.4362793 C699.7974595 1854.42623252 696.39690604 1857.48560563 693.05957031 1860.64770508 C687.06910946 1866.32213817 680.78578446 1871.38383227 674.18261719 1876.32958984 C669.55112297 1879.81204924 665.10617011 1883.42999313 660.75 1887.25 C649.83443437 1896.77673741 637.99005345 1905.10776517 626.22998047 1913.54931641 C622.1640756 1916.47078323 618.15246084 1919.44198035 614.1875 1922.5 C600.99758719 1932.46612127 586.88813523 1941.30963763 572.94921875 1950.1875 C570.77705258 1951.57249263 568.61339213 1952.96595429 566.45703125 1954.375 C558.21241431 1959.75110894 549.80589968 1964.79793361 541.29541016 1969.74072266 C538.58107829 1971.32234809 535.87426092 1972.91637797 533.16796875 1974.51171875 C510.17951524 1988.040089 486.74451692 2000.43067022 462.8125 2012.1875 C461.7901123 2012.69168457 460.76772461 2013.19586914 459.71435547 2013.71533203 C437.78642852 2024.49864247 415.39523169 2034.31206878 392.4987793 2042.85375977 C391.51562744 2043.22170654 390.53247559 2043.58965332 389.51953125 2043.96875 C388.25846558 2044.4337793 388.25846558 2044.4337793 386.97192383 2044.90820312 C384.14216201 2046.05401504 381.397374 2047.29892597 378.62963867 2048.58520508 C373.19377819 2051.07231737 367.68849093 2053.12236434 362.03125 2055.04296875 C360.53058487 2055.55829414 360.53058487 2055.55829414 358.99960327 2056.08403015 C355.77297836 2057.18824286 352.54310669 2058.28249627 349.3125 2059.375 C348.20988831 2059.74989563 347.10727661 2060.12479126 345.97125244 2060.51104736 C328.94251698 2066.29176644 311.83816217 2071.56920382 294.4921875 2076.3046875 C290.87132755 2077.29678792 287.33290765 2078.2955263 283.84765625 2079.69140625 C277.5639357 2082.17005935 270.9187352 2083.61993341 264.375 2085.25 C263.60662811 2085.44180847 262.83825623 2085.63361694 262.04660034 2085.83123779 C219.16142176 2096.47095041 175.44779438 2104.69076828 131.49609375 2109.39038086 C130.60535156 2109.48585205 129.71460938 2109.58132324 128.796875 2109.6796875 C128.04116211 2109.75558105 127.28544922 2109.83147461 126.50683594 2109.90966797 C124.7822502 2110.02329424 124.7822502 2110.02329424 123.8125 2111.1875 C121.19846107 2111.54081601 118.60077977 2111.83456082 115.9765625 2112.08984375 C114.73814102 2112.21378258 114.73814102 2112.21378258 113.47470093 2112.34022522 C111.69755421 2112.51648 109.92016867 2112.69033968 108.14257812 2112.86206055 C105.56548353 2113.11255972 102.98982766 2113.3749099 100.4140625 2113.63867188 C68.50877309 2116.82137496 36.67904898 2117.56242433 4.63685226 2117.50515366 C1.51905871 2117.49992718 -1.59872484 2117.49800349 -4.71652222 2117.49649048 C-33.53592974 2117.47214727 -62.24330125 2117.19078651 -90.9520874 2114.40289307 C-93.24417587 2114.182039 -95.53710115 2113.97312432 -97.83056641 2113.76708984 C-121.76960599 2111.60539401 -121.76960599 2111.60539401 -123.1875 2110.1875 C-125.58434313 2109.82405058 -127.96750683 2109.5171008 -130.375 2109.2421875 C-131.93528965 2109.05493017 -133.49550768 2108.86707539 -135.05566406 2108.67871094 C-135.88940552 2108.57909058 -136.72314697 2108.47947021 -137.58215332 2108.37683105 C-187.19325721 2102.39132796 -237.20173687 2093.31348648 -285.1875 2079.1875 C-285.1875 2078.5275 -285.1875 2077.8675 -285.1875 2077.1875 C-286.33847168 2077.06922852 -287.48944336 2076.95095703 -288.67529297 2076.82910156 C-293.06464493 2076.27656542 -297.15633674 2075.20248414 -301.3828125 2073.921875 C-302.15679382 2073.69211975 -302.93077515 2073.4623645 -303.72821045 2073.22564697 C-306.25874193 2072.47079041 -308.78579275 2071.70505309 -311.3125 2070.9375 C-312.6162558 2070.54449707 -312.6162558 2070.54449707 -313.9463501 2070.14355469 C-327.40591486 2066.08028985 -340.76365515 2061.74840311 -354.0625 2057.1875 C-354.85851624 2056.914823 -355.65453247 2056.642146 -356.47467041 2056.36120605 C-364.79276307 2053.50302966 -373.07130245 2050.58695447 -381.1875 2047.1875 C-381.1875 2046.5275 -381.1875 2045.8675 -381.1875 2045.1875 C-382.04819092 2045.07067871 -382.90888184 2044.95385742 -383.7956543 2044.83349609 C-387.25319616 2044.1749878 -390.19315725 2043.16007141 -393.45703125 2041.8515625 C-394.66343262 2041.36977539 -395.86983398 2040.88798828 -397.11279297 2040.39160156 C-398.40874722 2039.86577275 -399.70447787 2039.33939257 -401 2038.8125 C-401.66034241 2038.54594604 -402.32068481 2038.27939209 -403.0010376 2038.00476074 C-412.24210305 2034.27404964 -421.43243187 2030.43320037 -430.5625 2026.4375 C-431.50327393 2026.02709473 -432.44404785 2025.61668945 -433.41333008 2025.19384766 C-439.64433143 2022.43043472 -445.74172595 2019.44130493 -451.8261261 2016.37315369 C-456.86924101 2013.83365255 -461.94205999 2011.36335185 -467.03515625 2008.92578125 C-484.45299873 2000.57474317 -501.53966472 1992.00568265 -518.1875 1982.1875 C-520.26487754 1980.97658137 -522.34303126 1979.76699354 -524.421875 1978.55859375 C-528.54202902 1976.16216148 -532.65754472 1973.7580725 -536.76953125 1971.34765625 C-540.5695958 1969.12388556 -544.38552834 1966.93339894 -548.22363281 1964.77612305 C-555.11304024 1960.90254882 -561.66142119 1956.63979242 -568.1875 1952.1875 C-571.18333 1950.1812394 -574.1858961 1948.18510821 -577.1875 1946.1875 C-579.08994667 1944.91942522 -580.99228505 1943.65118798 -582.89453125 1942.3828125 C-584.3940332 1941.38314453 -584.3940332 1941.38314453 -585.92382812 1940.36328125 C-596.01171875 1933.63802083 -606.09960938 1926.91276042 -616.1875 1920.1875 C-616.1875 1919.5275 -616.1875 1918.8675 -616.1875 1918.1875 C-616.7662085 1917.91437988 -617.34491699 1917.64125977 -617.94116211 1917.35986328 C-620.16677296 1916.19831744 -622.10145013 1914.90711209 -624.12890625 1913.4296875 C-624.87213135 1912.89037598 -625.61535645 1912.35106445 -626.38110352 1911.79541016 C-627.16283936 1911.2235498 -627.9445752 1910.65168945 -628.75 1910.0625 C-629.95837524 1909.18343994 -629.95837524 1909.18343994 -631.19116211 1908.28662109 C-632.7962516 1907.11866852 -634.40051902 1905.94958525 -636.00390625 1904.77929688 C-637.83220112 1903.4465059 -639.66411603 1902.11917624 -641.5 1900.796875 C-656.25060367 1890.15297349 -656.25060367 1890.15297349 -660.5703125 1885.76953125 C-663.29157311 1883.08482489 -666.12685404 1880.85033286 -669.1875 1878.5625 C-676.075306 1873.35450157 -682.63933358 1867.81288958 -689.1875 1862.1875 C-689.91195313 1861.57648438 -690.63640625 1860.96546875 -691.3828125 1860.3359375 C-693.83339329 1858.26726541 -696.19631672 1856.17853075 -698.4453125 1853.890625 C-701.52241723 1850.85735367 -704.75742097 1848.09106294 -708.0625 1845.3125 C-712.4221955 1841.61550077 -716.64007824 1837.88918016 -720.609375 1833.76953125 C-723.01498851 1831.35796325 -725.60190167 1829.16695086 -728.1953125 1826.9609375 C-730.62694824 1824.7963049 -732.89083881 1822.49546485 -735.1875 1820.1875 C-736.20673929 1819.16767687 -737.22628446 1818.14815938 -738.24609375 1817.12890625 C-760.12890625 1795.24609375 -760.12890625 1795.24609375 -761.69863892 1793.67564392 C-763.10387838 1792.27108134 -764.51157902 1790.86898235 -765.91943359 1789.46704102 C-768.62193101 1786.75087111 -771.22287083 1783.94798696 -773.8125 1781.125 C-774.86717838 1779.97655412 -775.9218661 1778.82811683 -776.9765625 1777.6796875 C-777.50797852 1777.10057617 -778.03939453 1776.52146484 -778.58691406 1775.92480469 C-780.1417589 1774.23714821 -781.70596241 1772.55873557 -783.2734375 1770.8828125 C-783.76376465 1770.3556665 -784.2540918 1769.82852051 -784.75927734 1769.28540039 C-786.10812675 1767.83532964 -787.46021355 1766.38827226 -788.8125 1764.94140625 C-791.1875 1762.1875 -791.1875 1762.1875 -793.17578125 1759.1640625 C-795.3063397 1756.01166339 -797.62501076 1753.62300561 -800.375 1751 C-808.56431442 1743.01466549 -815.36992864 1734.04242122 -822.16796875 1724.86328125 C-823.80354339 1722.69622395 -825.47651785 1720.61574271 -827.25 1718.5625 C-829.1875 1716.1875 -829.1875 1716.1875 -829.1875 1714.1875 C-829.74179687 1713.99671875 -830.29609375 1713.8059375 -830.8671875 1713.609375 C-834.2068963 1711.56281944 -836.10005831 1708.58906683 -838.3125 1705.4375 C-838.79187012 1704.76936279 -839.27124023 1704.10122559 -839.76513672 1703.4128418 C-841.2474383 1701.3434201 -842.71821722 1699.2661787 -844.1875 1697.1875 C-845.4810596 1695.37019961 -846.77654817 1693.55428758 -848.07226562 1691.73852539 C-848.9000122 1690.57821371 -849.72683358 1689.41724145 -850.55273438 1688.25561523 C-853.88686952 1683.57576696 -857.31611613 1678.97250601 -860.7890625 1674.39453125 C-867.45983846 1665.50963176 -873.75778954 1656.44119568 -879.8125 1647.125 C-880.54405555 1646.00702056 -881.2758259 1644.88918164 -882.0078125 1643.77148438 C-885.74256527 1638.04418688 -889.38869194 1632.2870875 -892.83984375 1626.3840332 C-894.31141543 1623.98553132 -895.91217032 1621.71602128 -897.5625 1619.4375 C-900.93899737 1614.67239982 -903.83771449 1609.70597116 -906.69140625 1604.6171875 C-909.29983751 1599.96598224 -911.97282216 1595.35269488 -914.64355469 1590.73706055 C-928.03268977 1567.59642504 -940.92989835 1544.38635738 -952.33203125 1520.1875 C-954.21438088 1516.20088983 -956.15004277 1512.24810967 -958.13671875 1508.3125 C-967.70721469 1489.19430226 -975.4808452 1469.42732535 -983.2845459 1449.53742981 C-985.51673612 1443.85609869 -987.81713918 1438.21138561 -990.18505859 1432.58520508 C-1001.55666573 1405.38584959 -1009.73547827 1376.61630874 -1017.53417969 1348.23144531 C-1017.96003452 1346.68417543 -1018.38613486 1345.13697309 -1018.8125 1343.58984375 C-1019.01701782 1342.84641724 -1019.22153564 1342.10299072 -1019.43225098 1341.33703613 C-1020.57266872 1337.23895522 -1021.82668459 1333.21547944 -1023.234375 1329.19921875 C-1025.92940704 1321.31192935 -1027.64110808 1313.19113914 -1029.4375 1305.0625 C-1029.63003357 1304.19680389 -1029.82256714 1303.33110779 -1030.02093506 1302.43917847 C-1040.11614069 1256.93318522 -1047.71897685 1211.07815027 -1052.03417969 1164.6496582 C-1052.10696136 1163.87632645 -1052.17974304 1163.10299469 -1052.25473022 1162.30622864 C-1052.38859509 1160.86994006 -1052.51825769 1159.43325132 -1052.64297485 1157.99613953 C-1052.70465095 1154.8104319 -1052.70465095 1154.8104319 -1054.1875 1152.1875 C-1054.50020479 1149.80108935 -1054.74293336 1147.44009109 -1054.94140625 1145.04296875 C-1055.00685135 1144.25271805 -1055.07229645 1143.46246735 -1055.13972473 1142.64826965 C-1059.54091065 1086.77706382 -1059.56717326 1029.18824799 -1054.94140625 973.33203125 C-1054.85067085 972.23614433 -1054.85067085 972.23614433 -1054.75810242 971.11811829 C-1054.31329966 966.31329966 -1054.31329966 966.31329966 -1053.1875 965.1875 C-1052.81095943 962.20753289 -1052.49207583 959.23917404 -1052.20703125 956.25 C-1052.01458203 954.32522631 -1051.82160553 952.40050528 -1051.62817383 950.47583008 C-1051.52646881 949.45260651 -1051.42476379 948.42938293 -1051.31997681 947.37515259 C-1046.42765991 898.63722444 -1038.74966808 850.22870211 -1026.8125 802.6875 C-1026.60757935 801.870466 -1026.40265869 801.05343201 -1026.19152832 800.2116394 C-1024.11887164 792.01317956 -1021.87020962 783.94970123 -1019.11230469 775.95068359 C-1017.54632117 771.27174975 -1016.29111331 766.5105645 -1015 761.75 C-1009.59787764 742.20846089 -1003.53382796 722.87852705 -997 703.6875 C-996.6083667 702.52573242 -996.2167334 701.36396484 -995.81323242 700.16699219 C-993.4274381 693.25531564 -990.65158896 686.66282193 -987.52416992 680.0546875 C-985.97088199 676.72284941 -984.67670924 673.39762969 -983.4375 669.9375 C-974.91256249 646.70190017 -965.28509244 623.95543077 -954.04296875 601.8984375 C-952.08757059 598.03116701 -950.24547813 594.11182671 -948.39331055 590.19433594 C-944.04422094 581.00386447 -939.56994607 571.89421912 -934.875 562.875 C-934.39587158 561.95146729 -933.91674316 561.02793457 -933.4230957 560.07641602 C-930.67912404 554.84715882 -927.77092576 549.75867329 -924.70336914 544.71313477 C-922.05646515 540.30304912 -919.57312353 535.80106161 -917.0625 531.3125 C-901.0990452 502.94865565 -901.0990452 502.94865565 -893.078125 491.91015625 C-890.39475544 488.04588232 -887.92996762 484.05170365 -885.4375 480.0625 C-875.98543611 464.9862742 -865.68066726 450.55222244 -855.1875 436.1875 C-854.30626465 434.9809375 -854.30626465 434.9809375 -853.40722656 433.75 C-844.04405257 420.9484295 -834.69761894 408.17445627 -824.36254883 396.13354492 C-821.01610564 392.21927034 -817.83330021 388.20150039 -814.6875 384.125 C-810.7373594 379.02141553 -806.57673253 374.21700722 -802.1652832 369.50878906 C-799.25964995 366.39690289 -796.53001067 363.20235163 -793.875 359.875 C-789.60311901 354.56401282 -785.00878108 349.60837823 -780.32299805 344.66479492 C-777.39724512 341.57489498 -774.53489585 338.45518962 -771.7578125 335.23046875 C-767.47105584 330.29490891 -762.81264273 325.76235264 -758.1484375 321.1875 C-754.15881992 317.2440942 -750.4038195 313.18676545 -746.7421875 308.93798828 C-744.86076626 306.81961669 -742.84184583 304.96321899 -740.6875 303.125 C-736.12270236 299.11160758 -731.83461967 294.88103856 -727.5625 290.5625 C-723.18451451 286.14555579 -718.8167411 281.79776403 -714.0625 277.78125 C-711.78366622 275.84424129 -709.58425343 273.82844375 -707.375 271.8125 C-703.83589998 268.61097567 -700.21646894 265.55603937 -696.5 262.5625 C-693.45294836 260.10109339 -690.56858347 257.65497502 -687.875 254.8125 C-684.23194244 251.04886843 -680.1293966 247.91630575 -675.99584961 244.72045898 C-671.23055168 241.03021722 -666.5724846 237.22723238 -661.9375 233.375 C-648.1056384 221.92664354 -633.87958606 211.07974164 -619.25683594 200.66308594 C-617.33655681 199.29378827 -615.4211861 197.91798586 -613.5078125 196.5390625 C-610.07971099 194.07144535 -606.63863084 191.62279714 -603.1875 189.1875 C-602.59356445 188.76823242 -601.99962891 188.34896484 -601.38769531 187.91699219 C-591.30475021 180.82750464 -580.97345905 174.16734026 -570.55078125 167.58984375 C-567.31961525 165.54865782 -564.10484704 163.4885513 -560.91796875 161.37890625 C-543.35710667 149.76089688 -524.8963944 139.54816595 -506.44091797 129.4296875 C-504.04876721 128.11102411 -501.66689147 126.77487521 -499.28515625 125.4375 C-484.19773054 117.0193797 -468.7167417 109.49109839 -453.10986328 102.09887695 C-451.25049474 101.2173653 -449.39262663 100.33276876 -447.53515625 99.44726562 C-364.79044491 60.0863836 -275.96170294 31.88022224 -52.1875 1.1875 C-51.39038605 1.14619965 -50.59327209 1.10489929 -49.77200317 1.06234741 C-33.17969528 0.22563566 -16.61178923 -0.01476676 0 0 Z " fill="#00A0FE" transform="translate(1731.1875,672.8125)"/>
<path d="M0 0 C3.43600535 0.00463742 6.87165713 -0.00234106 10.30761719 -0.02050781 C37.92522255 -0.16495798 64.85930487 1.26647491 92.21899414 5.31567383 C94.43230246 5.6272319 96.64581556 5.9373421 98.85961914 6.24536133 C109.70800037 7.78612248 120.44726528 9.40743286 131.10961914 11.95141602 C137.03430788 13.3462793 142.9367781 14.16494364 148.98461914 14.82348633 C152.26587614 15.32280805 155.08947023 16.22575001 158.21899414 17.31567383 C160.73696576 17.9607516 163.25412268 18.58571463 165.78149414 19.19067383 C171.83612173 20.67141761 177.77955552 22.36070515 183.72290039 24.24536133 C188.70913329 25.77187285 193.73904986 27.13285412 198.77709961 28.47753906 C203.06372024 29.64159898 207.18468436 31.01323093 211.32763672 32.61279297 C214.1429369 33.65903658 217.0123448 34.45514212 219.90649414 35.25317383 C224.7052952 36.60509413 229.50222437 37.95848145 234.28149414 39.37817383 C235.3037207 39.67852539 236.32594727 39.97887695 237.37915039 40.28833008 C240.21899414 41.31567383 240.21899414 41.31567383 242.60180664 42.74926758 C245.91825461 44.73418644 249.41193113 46.00813649 253.03149414 47.31567383 C254.39217122 47.81567383 255.75284831 48.31567383 257.11352539 48.81567383 C259.17651093 49.57061051 261.24013635 50.32329066 263.30688477 51.06787109 C267.38762357 52.55939469 271.23522459 54.23827615 275.09399414 56.25317383 C279.63681178 58.57339927 284.18331789 60.58671765 288.96508789 62.35864258 C291.21899414 63.31567383 291.21899414 63.31567383 293.64868164 64.78051758 C296.33596362 66.38553554 298.99994048 67.53426129 301.90649414 68.69067383 C307.4927451 70.96809212 312.86837344 73.53382457 318.21899414 76.31567383 C318.21899414 76.97567383 318.21899414 77.63567383 318.21899414 78.31567383 C319.39461914 78.62504883 320.57024414 78.93442383 321.78149414 79.25317383 C328.41707779 81.47191486 334.11704374 85.32621564 340.02709961 88.98168945 C344.80314305 91.88838375 349.67089125 94.64093015 354.52124023 97.42114258 C358.87553632 99.92683783 363.16629319 102.50132741 367.39697266 105.21118164 C369.2913298 106.35952302 371.22571052 107.35106644 373.21899414 108.31567383 C373.21899414 108.97567383 373.21899414 109.63567383 373.21899414 110.31567383 C373.9112207 110.55415039 374.60344727 110.79262695 375.31665039 111.03833008 C378.74404526 112.54675285 381.63972447 114.56910316 384.65649414 116.75317383 C388.6881443 119.66412971 392.70395623 122.19776012 397.21899414 124.31567383 C397.21899414 124.97567383 397.21899414 125.63567383 397.21899414 126.31567383 C397.76555664 126.57606445 398.31211914 126.83645508 398.87524414 127.10473633 C401.58346903 128.50398585 404.13874936 130.06738796 406.71899414 131.69067383 C408.12665039 132.56852539 408.12665039 132.56852539 409.56274414 133.46411133 C412.09461047 135.22897109 414.0760454 137.10916305 416.21899414 139.31567383 C417.20899414 139.97567383 418.19899414 140.63567383 419.21899414 141.31567383 C421.93882988 143.12889766 423.92442465 145.02110433 426.21899414 147.31567383 C427.54466613 147.99744799 428.87653102 148.66758819 430.21899414 149.31567383 C430.54899414 149.97567383 430.87899414 150.63567383 431.21899414 151.31567383 C431.79649414 151.58379883 432.37399414 151.85192383 432.96899414 152.12817383 C435.93479598 153.69345813 437.85411982 155.9507995 440.21899414 158.31567383 C441.04399414 158.81067383 441.86899414 159.30567383 442.71899414 159.81567383 C445.71947128 161.61596011 447.73955956 163.83623925 450.21899414 166.31567383 C452.69221586 168.33104293 455.19730438 170.29886427 457.71899414 172.25317383 C460.39648598 174.4621046 462.78034422 176.84691712 465.21899414 179.31567383 C467.04281207 180.99274778 468.87632136 182.65933874 470.71899414 184.31567383 C475.78620076 188.87046629 480.59479601 193.51608274 485.03149414 198.69067383 C488.23837281 202.33842282 491.62425159 205.4912248 495.33227539 208.61645508 C497.78408778 210.82460909 499.83881189 213.26083244 501.89477539 215.83520508 C503.3441702 217.57993747 503.3441702 217.57993747 506.21899414 219.31567383 C506.9112207 220.48743164 506.9112207 220.48743164 507.61743164 221.68286133 C509.38301126 224.58530196 511.2435301 226.26949274 513.84399414 228.44067383 C518.36383508 232.405332 522.09475023 236.60606378 525.81665039 241.31567383 C527.98852387 244.02786705 530.22674745 246.64978826 532.51293945 249.2644043 C539.01497355 256.70933788 544.95272297 264.48763804 550.81811523 272.4387207 C552.88377958 275.20637973 555.02311901 277.91234248 557.15649414 280.62817383 C561.3087882 286.0120235 565.23398394 291.53134817 569.09399414 297.12817383 C569.64176514 297.91683838 570.18953613 298.70550293 570.75390625 299.51806641 C573.26362056 303.19337862 575.54246647 306.81493164 577.47680664 310.82739258 C578.80426139 314.35845677 578.80426139 314.35845677 581.21899414 315.31567383 C582.39385911 317.94184258 583.30914276 320.58611968 584.21899414 323.31567383 C584.87899414 323.31567383 585.53899414 323.31567383 586.21899414 323.31567383 C589.49979856 327.5192045 590.99824234 331.22920799 592.21899414 336.31567383 C592.87899414 336.31567383 593.53899414 336.31567383 594.21899414 336.31567383 C598.53990685 342.08090277 601.31663156 348.40709394 603.21899414 355.31567383 C603.87899414 355.31567383 604.53899414 355.31567383 605.21899414 355.31567383 C605.63149414 356.34692383 606.04399414 357.37817383 606.46899414 358.44067383 C608.00624838 362.03481755 610.00180203 365.09066712 612.21899414 368.31567383 C614.94656719 372.54149123 616.72345944 376.23644312 617.21899414 381.31567383 C617.87899414 381.31567383 618.53899414 381.31567383 619.21899414 381.31567383 C619.61731445 382.35208008 620.01563477 383.38848633 620.42602539 384.45629883 C620.96085663 385.82621743 621.49603098 387.19600211 622.03149414 388.56567383 C622.42304688 389.58854492 622.42304688 389.58854492 622.82250977 390.63208008 C624.26259475 394.29451844 625.7450383 397.21797274 628.21899414 400.31567383 C628.8999679 402.15430297 629.57657879 403.99466941 630.23071289 405.84301758 C631.39660206 408.76004462 632.82343001 411.4702177 634.28149414 414.25317383 C637.74381598 420.98377529 640.63491587 427.92574669 643.46899414 434.94067383 C643.89317627 435.97699951 644.3173584 437.0133252 644.75439453 438.08105469 C647.19481824 444.20318133 649.10214189 450.2522604 650.56494141 456.68017578 C651.18434414 459.17605204 651.96835483 461.48655632 652.90649414 463.87817383 C654.21899414 467.31567383 654.21899414 467.31567383 654.21899414 470.31567383 C654.87899414 470.31567383 655.53899414 470.31567383 656.21899414 470.31567383 C660.4212588 482.52012331 663.95374396 494.76006633 666.65087891 507.37866211 C667.78394607 512.59481969 669.15251296 517.69572548 670.65649414 522.81567383 C673.22291447 531.60815028 674.90351602 540.53610148 676.51953125 549.54614258 C676.71297119 550.6109082 676.90641113 551.67567383 677.10571289 552.77270508 C677.27288818 553.72121338 677.44006348 554.66972168 677.61230469 555.64697266 C678.22932514 558.36111777 679.16209924 560.74578046 680.21899414 563.31567383 C681.0345532 566.32935218 681.64858526 569.38381394 682.28149414 572.44067383 C682.45922363 573.28944092 682.63695313 574.13820801 682.82006836 575.01269531 C683.88625054 580.25500797 684.66458971 585.40391774 684.98706055 590.75 C685.20105452 593.11722389 685.60906944 595.27744334 686.14477539 597.58911133 C687.51048524 604.22212132 688.03528709 610.92514289 688.59667969 617.66259766 C688.77916567 619.85025987 688.97000054 622.03706256 689.16235352 624.22387695 C690.52045902 639.9811523 691.37630863 655.63804775 691.35180664 671.45239258 C691.35248346 673.03123489 691.3534566 674.6100771 691.35470581 676.18891907 C691.35616374 679.46531181 691.35408972 682.74167693 691.34936523 686.01806641 C691.34365483 690.17626221 691.3469675 694.33439361 691.3529377 698.49258709 C691.35658319 701.74174977 691.35538682 704.99089764 691.35280991 708.24006081 C691.35215236 709.77196066 691.35292699 711.30386195 691.35528946 712.83576012 C691.36971952 724.80890353 691.02877856 736.72563045 689.25024414 748.58520508 C687.96497285 757.78798552 687.26240388 767.02043355 686.54174805 776.28076172 C685.90036105 784.45449223 685.15182814 792.50452803 683.6965332 800.58251953 C683.07000635 804.16839283 682.62846618 807.76745857 682.18017578 811.37915039 C680.98640589 820.91890632 679.24568399 829.99939217 676.73950195 839.27368164 C675.56600317 843.87740763 674.63780559 848.54625918 673.70166016 853.20336914 C672.98366812 856.5958334 672.22589747 859.30191894 670.65649414 862.42895508 C669.03566388 865.6838289 668.65329368 868.27297154 668.28149414 871.87817383 C667.44966569 878.29323485 665.96573297 884.08252599 663.91430664 890.2043457 C663.09341021 892.69701155 662.31201269 895.20069612 661.53149414 897.70629883 C643.59515657 955.03478964 643.59515657 955.03478964 634.21899414 968.66723633 C632.56152697 971.39946737 631.92910305 974.21701676 631.21899414 977.31567383 C630.55899414 977.31567383 629.89899414 977.31567383 629.21899414 977.31567383 C629.08879883 977.88415039 628.95860352 978.45262695 628.82446289 979.03833008 C625.22970067 992.55927442 617.84208017 1005.31481094 611.18286133 1017.54077148 C610.26223195 1019.23605405 609.35359 1020.93783005 608.44555664 1022.63989258 C607.91704102 1023.62602539 607.38852539 1024.6121582 606.84399414 1025.62817383 C606.15176758 1026.92174805 606.15176758 1026.92174805 605.44555664 1028.24145508 C604.21899414 1030.31567383 604.21899414 1030.31567383 602.21899414 1032.31567383 C601.57647064 1034.38441417 601.57647064 1034.38441417 601.21899414 1036.31567383 C600.55899414 1036.31567383 599.89899414 1036.31567383 599.21899414 1036.31567383 C598.99211914 1037.16129883 598.76524414 1038.00692383 598.53149414 1038.87817383 C597.28795697 1042.1350569 595.73803546 1044.42289214 593.65258789 1047.18286133 C591.22425649 1050.79558325 589.43470974 1054.72732582 587.55102539 1058.64379883 C586.21899414 1061.31567383 586.21899414 1061.31567383 584.21899414 1064.31567383 C583.55899414 1064.31567383 582.89899414 1064.31567383 582.21899414 1064.31567383 C581.97665039 1064.83000977 581.73430664 1065.3443457 581.48461914 1065.87426758 C575.00806454 1078.36762135 566.470972 1089.65079495 558.04663086 1100.8659668 C556.21095402 1103.32645055 554.40076414 1105.80372343 552.59790039 1108.28833008 C546.5748001 1116.57881527 540.44899764 1124.66550663 533.73071289 1132.40551758 C531.33179299 1135.18498153 529.01885515 1138.01657686 526.71899414 1140.87817383 C522.93552225 1145.53738604 518.95050352 1149.96803354 514.84790039 1154.34521484 C512.74681228 1156.59556267 510.93307573 1158.74455145 509.21899414 1161.31567383 C508.55899414 1161.31567383 507.89899414 1161.31567383 507.21899414 1161.31567383 C506.96111115 1161.8985466 506.70322815 1162.48141937 506.43753052 1163.08195496 C505.11575834 1165.50491706 503.67378271 1167.10822797 501.72241211 1169.05517578 C501.00761688 1169.77304764 500.29282166 1170.49091949 499.55636597 1171.23054504 C498.78245514 1171.99727036 498.00854431 1172.76399567 497.21118164 1173.55395508 C496.01200607 1174.75244331 496.01200607 1174.75244331 494.78860474 1175.97514343 C493.09458819 1177.66613911 491.39814211 1179.35470387 489.69946289 1181.04101562 C487.11953035 1183.60281709 484.54756453 1186.1724036 481.97680664 1188.7434082 C480.3262336 1190.38906065 478.67520612 1192.03425747 477.02368164 1193.67895508 C476.2619162 1194.4396077 475.50015076 1195.20026031 474.71530151 1195.98396301 C470.03763222 1200.62095832 465.2274511 1205.03886695 460.21899414 1209.31567383 C459.1017427 1210.27783916 457.98454465 1211.24006652 456.86743164 1212.20239258 C455.17451721 1213.65243949 453.47996667 1215.10055113 451.78491211 1216.5480957 C448.76498321 1219.12869025 445.75347078 1221.71721244 442.76586914 1224.33520508 C434.87279737 1231.22754004 426.69472416 1237.59838623 418.25561523 1243.80688477 C416.21661444 1245.31743678 414.19423528 1246.84779104 412.17602539 1248.38598633 C405.16992261 1253.7178991 398.09370211 1258.8431637 390.72485352 1263.66333008 C387.0465978 1266.07415732 383.45362687 1268.56671341 379.90380859 1271.1628418 C373.2443947 1276.03295111 366.39201608 1280.22085755 359.16381836 1284.21801758 C356.96591715 1285.45851015 354.79689258 1286.74196886 352.62915039 1288.03442383 C351.85482666 1288.4959082 351.08050293 1288.95739258 350.28271484 1289.43286133 C348.76256743 1290.34138881 347.24411726 1291.2527633 345.72753906 1292.16723633 C340.43868385 1295.31567383 340.43868385 1295.31567383 338.21899414 1295.31567383 C338.21899414 1295.97567383 338.21899414 1296.63567383 338.21899414 1297.31567383 C337.13360352 1297.84676758 336.04821289 1298.37786133 334.92993164 1298.92504883 C333.48451175 1299.63837293 332.03920525 1300.35192683 330.59399414 1301.06567383 C329.88114258 1301.4137207 329.16829102 1301.76176758 328.43383789 1302.12036133 C325.17874928 1303.73297403 322.15338639 1305.35985525 319.13305664 1307.39379883 C315.9407598 1309.49917423 312.74867447 1310.85326831 309.21899414 1312.31567383 C306.65689655 1313.56756164 304.12877614 1314.8845266 301.59399414 1316.19067383 C295.53552855 1319.27360891 289.48747744 1321.90740127 283.08618164 1324.21020508 C279.31954971 1325.66246235 275.7901751 1327.47441158 272.23461914 1329.37817383 C268.66816013 1331.27186888 265.23888114 1332.6726174 261.34399414 1333.75317383 C256.78045718 1335.03208235 252.84421719 1336.93626743 248.65258789 1339.12036133 C244.17340001 1341.32041188 239.45710837 1342.66145582 234.67993164 1344.05786133 C233.82657227 1344.30793945 232.97321289 1344.55801758 232.09399414 1344.81567383 C231.32829102 1345.03223633 230.56258789 1345.24879883 229.77368164 1345.47192383 C227.08388409 1346.3162181 227.08388409 1346.3162181 224.05883789 1347.69848633 C219.45471531 1349.70922591 214.69524115 1351.18614238 209.90649414 1352.69067383 C208.94606201 1352.99448975 207.98562988 1353.29830566 206.99609375 1353.61132812 C199.39599413 1355.99408581 191.75445216 1358.19225033 184.06665039 1360.27270508 C181.56025508 1360.9521036 179.05856218 1361.64917404 176.56274414 1362.36645508 C173.60461663 1363.20620389 170.64488021 1363.96802001 167.65649414 1364.69067383 C163.23728384 1365.77628628 158.88844028 1367.003582 154.53149414 1368.31567383 C147.41041447 1370.36018749 140.24891647 1371.68109395 132.9465332 1372.86206055 C129.81091768 1373.38354047 126.68350691 1373.94492108 123.55493164 1374.50708008 C108.7466255 1377.12582666 94.04719715 1379.12417523 79.07006836 1380.4152832 C77.83788574 1380.52163086 76.60570313 1380.62797852 75.33618164 1380.73754883 C74.24934082 1380.82617188 73.1625 1380.91479492 72.04272461 1381.00610352 C69.36141562 1381.22918384 69.36141562 1381.22918384 67.37922668 1381.80226135 C47.14787019 1386.61055426 23.58362941 1384.66270411 2.89111328 1384.63134766 C-0.42673298 1384.62671652 -3.74421254 1384.63366256 -7.06201172 1384.65185547 C-27.97861117 1384.76542174 -48.4951288 1384.02596435 -69.29121399 1381.6973114 C-73.99429336 1381.18299082 -78.70325987 1380.7429549 -83.41419983 1380.30744934 C-100.33259542 1378.68827414 -117.02836254 1375.74729743 -133.73513794 1372.6895752 C-135.10242185 1372.43969136 -136.46999918 1372.19140785 -137.83786011 1371.94470215 C-147.23876102 1370.24874043 -156.55831871 1368.32083221 -165.84350586 1366.06567383 C-167.08793457 1365.76411377 -168.33236328 1365.46255371 -169.61450195 1365.15185547 C-180.25160372 1362.52896188 -190.71725216 1359.48098882 -201.15258789 1356.15209961 C-203.74237258 1355.32796787 -206.33680979 1354.52058443 -208.93334961 1353.71801758 C-220.34295395 1350.17861123 -231.57827173 1346.27569469 -242.76123047 1342.07226562 C-244.6601215 1341.36095615 -246.56225852 1340.65832926 -248.46459961 1339.95629883 C-258.33566345 1336.30682253 -268.07261314 1332.37685791 -277.78100586 1328.31567383 C-277.78100586 1327.65567383 -277.78100586 1326.99567383 -277.78100586 1326.31567383 C-278.37268555 1326.20610352 -278.96436523 1326.0965332 -279.57397461 1325.98364258 C-284.24530829 1325.04632766 -287.77178227 1323.98848955 -291.78100586 1321.31567383 C-292.84641602 1320.89415039 -292.84641602 1320.89415039 -293.93334961 1320.46411133 C-297.59344328 1318.98802417 -301.07405835 1317.22191819 -304.59350586 1315.44067383 C-305.26704102 1315.10165039 -305.94057617 1314.76262695 -306.63452148 1314.41333008 C-309.40230621 1313.02016763 -312.16897808 1311.6248096 -314.93481445 1310.2277832 C-315.6304248 1309.87780273 -316.32603516 1309.52782227 -317.04272461 1309.16723633 C-317.66493896 1308.85351074 -318.28715332 1308.53978516 -318.92822266 1308.21655273 C-321.83390821 1306.80372105 -324.79895905 1305.55819333 -327.78100586 1304.31567383 C-327.78100586 1303.65567383 -327.78100586 1302.99567383 -327.78100586 1302.31567383 C-328.56475586 1302.19192383 -329.34850586 1302.06817383 -330.15600586 1301.94067383 C-332.78100586 1301.31567383 -332.78100586 1301.31567383 -334.78100586 1299.31567383 C-336.8497462 1298.67315033 -336.8497462 1298.67315033 -338.78100586 1298.31567383 C-338.78100586 1297.65567383 -338.78100586 1296.99567383 -338.78100586 1296.31567383 C-339.47967773 1296.21899414 -340.17834961 1296.12231445 -340.89819336 1296.02270508 C-344.33045693 1295.18091686 -346.84947561 1293.78185348 -349.90600586 1292.00317383 C-350.50219727 1291.65633545 -351.09838867 1291.30949707 -351.71264648 1290.95214844 C-359.41969776 1286.42141369 -366.94992701 1281.60074617 -374.47875977 1276.78198242 C-376.67960468 1275.38025659 -378.8902115 1273.99565283 -381.10522461 1272.61645508 C-382.39303305 1271.80793782 -383.68079637 1270.99934868 -384.96850586 1270.19067383 C-385.56276367 1269.82466064 -386.15702148 1269.45864746 -386.76928711 1269.08154297 C-388.14169705 1268.21280582 -389.46759533 1267.27127105 -390.78100586 1266.31567383 C-390.78100586 1265.65567383 -390.78100586 1264.99567383 -390.78100586 1264.31567383 C-391.65015625 1264.14938477 -391.65015625 1264.14938477 -392.53686523 1263.97973633 C-395.03328742 1263.24102132 -396.59290591 1262.22803768 -398.68725586 1260.69067383 C-399.42540527 1260.15321533 -400.16355469 1259.61575684 -400.92407227 1259.06201172 C-402.09075439 1258.19757446 -402.09075439 1258.19757446 -403.28100586 1257.31567383 C-404.08328613 1256.72842529 -404.88556641 1256.14117676 -405.7121582 1255.53613281 C-408.07416186 1253.8035707 -410.42908446 1252.0618907 -412.78100586 1250.31567383 C-413.71348145 1249.62368896 -413.71348145 1249.62368896 -414.66479492 1248.91772461 C-417.1885903 1247.04058786 -419.70366392 1245.15265018 -422.21069336 1243.25317383 C-423.89100375 1241.98655688 -425.58338751 1240.73575937 -427.28881836 1239.50317383 C-428.02874023 1238.96692383 -428.76866211 1238.43067383 -429.53100586 1237.87817383 C-430.16522461 1237.42571289 -430.79944336 1236.97325195 -431.45288086 1236.50708008 C-431.89116211 1236.11391602 -432.32944336 1235.72075195 -432.78100586 1235.31567383 C-432.78100586 1234.65567383 -432.78100586 1233.99567383 -432.78100586 1233.31567383 C-434.43100586 1232.65567383 -436.08100586 1231.99567383 -437.78100586 1231.31567383 C-437.78100586 1230.65567383 -437.78100586 1229.99567383 -437.78100586 1229.31567383 C-438.80194336 1229.00629883 -438.80194336 1229.00629883 -439.84350586 1228.69067383 C-444.73487393 1226.40109728 -448.38364475 1222.74316047 -452.13647461 1218.90942383 C-455.71113548 1215.40340489 -459.61769291 1212.39516023 -463.55053711 1209.30395508 C-464.2865918 1208.64782227 -465.02264648 1207.99168945 -465.78100586 1207.31567383 C-465.78100586 1206.65567383 -465.78100586 1205.99567383 -465.78100586 1205.31567383 C-466.35987549 1205.06350098 -466.93874512 1204.81132813 -467.53515625 1204.55151367 C-470.05732638 1203.16362095 -471.7065549 1201.60155548 -473.71459961 1199.54223633 C-474.44614258 1198.79973633 -475.17768555 1198.05723633 -475.93139648 1197.29223633 C-476.68614258 1196.5162207 -477.44088867 1195.74020508 -478.21850586 1194.94067383 C-482.58288131 1190.47514977 -486.84033937 1186.1513114 -491.78100586 1182.31567383 C-492.99924248 1180.84096634 -494.21634666 1179.36510685 -495.40991211 1177.87036133 C-496.85715273 1176.22933065 -498.38839229 1174.93440445 -500.09350586 1173.56567383 C-503.92570632 1170.3984973 -506.78031381 1166.66889371 -509.81616211 1162.75317383 C-511.52361792 1160.63497815 -513.26025319 1158.7595436 -515.21850586 1156.87817383 C-519.00885752 1153.2170387 -522.23483147 1149.16321688 -525.53491211 1145.06176758 C-527.51465523 1142.64131642 -529.55129468 1140.31448242 -531.65600586 1138.00317383 C-536.45967906 1132.65104976 -540.83646465 1126.97793505 -545.23754883 1121.29614258 C-546.82373258 1119.26084954 -548.42742818 1117.24042566 -550.03491211 1115.22192383 C-582.43561318 1074.35185187 -582.43561318 1074.35185187 -586.78100586 1061.31567383 C-587.44100586 1061.31567383 -588.10100586 1061.31567383 -588.78100586 1061.31567383 C-589.59599148 1059.71276853 -590.40790513 1058.10830105 -591.21850586 1056.50317383 C-591.6709668 1055.60985352 -592.12342773 1054.7165332 -592.58959961 1053.79614258 C-593.78100586 1051.31567383 -593.78100586 1051.31567383 -594.78100586 1048.31567383 C-595.44100586 1048.31567383 -596.10100586 1048.31567383 -596.78100586 1048.31567383 C-597.7858479 1046.35982058 -598.78474391 1044.40091146 -599.78100586 1042.44067383 C-600.33788086 1041.35012695 -600.89475586 1040.25958008 -601.46850586 1039.13598633 C-602.78100586 1036.31567383 -602.78100586 1036.31567383 -602.78100586 1034.31567383 C-603.44100586 1034.31567383 -604.10100586 1034.31567383 -604.78100586 1034.31567383 C-605.44100586 1032.00567383 -606.10100586 1029.69567383 -606.78100586 1027.31567383 C-607.44100586 1027.31567383 -608.10100586 1027.31567383 -608.78100586 1027.31567383 C-609.06975586 1026.53192383 -609.35850586 1025.74817383 -609.65600586 1024.94067383 C-610.6301284 1022.21895751 -610.6301284 1022.21895751 -612.78100586 1020.31567383 C-613.17864849 1018.3274607 -613.51875935 1016.32623044 -613.78100586 1014.31567383 C-614.44100586 1014.31567383 -615.10100586 1014.31567383 -615.78100586 1014.31567383 C-617.70452427 1010.52744637 -619.61853231 1006.73448763 -621.53100586 1002.94067383 C-622.33924805 1001.34932617 -622.33924805 1001.34932617 -623.16381836 999.72583008 C-626.02806714 994.03226237 -628.6837792 988.35789081 -630.92431641 982.38891602 C-631.83779886 980.02544229 -631.83779886 980.02544229 -633.84350586 976.94067383 C-636.73376624 972.19973289 -637.61777496 966.68239821 -638.78100586 961.31567383 C-639.44100586 961.31567383 -640.10100586 961.31567383 -640.78100586 961.31567383 C-642.32529196 957.67777368 -643.85442727 954.03388299 -645.37084961 950.38427734 C-646.13797815 948.54636523 -646.91639277 946.71317673 -647.69506836 944.88012695 C-650.65372468 937.73652912 -652.81525161 930.99941922 -653.78100586 923.31567383 C-654.44100586 923.31567383 -655.10100586 923.31567383 -655.78100586 923.31567383 C-656.77183135 920.50681992 -657.74873038 917.69429529 -658.71850586 914.87817383 C-659.13519531 913.70351562 -659.13519531 913.70351562 -659.56030273 912.50512695 C-661.41651526 907.07067341 -662.32809257 902.0430203 -662.78100586 896.31567383 C-663.44100586 896.31567383 -664.10100586 896.31567383 -664.78100586 896.31567383 C-664.95116211 895.34887695 -665.12131836 894.38208008 -665.29663086 893.38598633 C-666.55925571 886.50273022 -668.01963789 880.20890038 -670.80444336 873.75708008 C-673.58103006 866.81561333 -674.81199251 859.50697224 -675.78100586 852.12817383 C-676.40984698 847.36470234 -677.27406504 843.05653097 -678.99975586 838.57348633 C-681.10692516 832.48376706 -682.13310698 826.44356676 -682.78100586 820.06567383 C-683.44973348 813.90865131 -684.29625985 807.82863476 -685.41381836 801.73364258 C-685.78100586 799.31567383 -685.78100586 799.31567383 -685.78100586 795.31567383 C-686.44100586 795.31567383 -687.10100586 795.31567383 -687.78100586 795.31567383 C-687.90217773 794.09493164 -688.02334961 792.87418945 -688.14819336 791.61645508 C-689.22328487 780.81011561 -689.22328487 780.81011561 -690.78100586 770.06567383 C-694.20022738 748.22353615 -694.12632641 726.28841872 -694.09667969 704.2421875 C-694.09207492 700.52266256 -694.09888312 696.8034667 -694.1171875 693.08398438 C-694.31120716 653.29054748 -691.08388581 614.48853891 -684.28393555 575.25805664 C-683.79935629 572.42303273 -683.33763433 569.58525428 -682.88256836 566.74536133 C-678.93905767 542.51391945 -672.99855768 518.76825093 -665.78100586 495.31567383 C-665.54639648 494.54562012 -665.31178711 493.77556641 -665.07006836 492.98217773 C-662.86225254 485.74021715 -660.52886487 478.54641725 -658.09350586 471.37817383 C-656.73628859 467.36974643 -655.51995208 463.47053977 -654.71850586 459.31567383 C-654.030228 455.82233902 -652.68523067 453.28556992 -650.78491211 450.24926758 C-649.12659436 447.05523144 -648.43635232 443.61784199 -647.55834961 440.14379883 C-646.33980368 435.71049605 -644.55747423 431.54881965 -642.78100586 427.31567383 C-642.02790479 425.44191723 -641.27781988 423.56694508 -640.53100586 421.69067383 C-639.94767253 420.23234049 -639.36433919 418.77400716 -638.78100586 417.31567383 C-638.12100586 417.31567383 -637.46100586 417.31567383 -636.78100586 417.31567383 C-636.65467773 416.59379883 -636.52834961 415.87192383 -636.39819336 415.12817383 C-634.98973771 408.70989491 -632.18981168 402.89371971 -628.78100586 397.31567383 C-628.06957498 395.33115612 -627.3910925 393.3336527 -626.78100586 391.31567383 C-626.12100586 391.31567383 -625.46100586 391.31567383 -624.78100586 391.31567383 C-624.45100586 389.33567383 -624.12100586 387.35567383 -623.78100586 385.31567383 C-623.12100586 385.31567383 -622.46100586 385.31567383 -621.78100586 385.31567383 C-621.45422852 384.15745117 -621.45422852 384.15745117 -621.12084961 382.97583008 C-619.29664752 377.99251416 -616.83380571 373.43182061 -614.34350586 368.75317383 C-613.85301758 367.82053711 -613.3625293 366.88790039 -612.85717773 365.92700195 C-610.59949287 361.65233007 -608.28779311 357.45025048 -605.78100586 353.31567383 C-604.4821743 351.09026996 -603.18925716 348.86250468 -601.90600586 346.62817383 C-601.55376953 346.01603027 -601.2015332 345.40388672 -600.83862305 344.77319336 C-598.76414464 341.13667644 -596.83893078 337.46934922 -595.03100586 333.69067383 C-593.35492833 330.23129496 -591.61113569 327.95062229 -588.78100586 325.31567383 C-587.52664399 322.68344421 -587.52664399 322.68344421 -586.78100586 320.31567383 C-586.12100586 320.31567383 -585.46100586 320.31567383 -584.78100586 320.31567383 C-584.69850586 319.57317383 -584.61600586 318.83067383 -584.53100586 318.06567383 C-583.62818134 314.75531725 -582.21130479 313.67232733 -579.78100586 311.31567383 C-579.08442223 309.6612877 -578.42003703 307.99313065 -577.78100586 306.31567383 C-575.63289827 302.78169038 -574.24059026 300.62206343 -570.78100586 298.31567383 C-570.49612305 297.59895508 -570.21124023 296.88223633 -569.91772461 296.14379883 C-568.38134831 292.32133684 -566.06007731 289.3420347 -563.59350586 286.06567383 C-563.09665283 285.39745605 -562.5997998 284.72923828 -562.08789062 284.04077148 C-558.96585407 279.85471565 -555.80424157 275.70102597 -552.57006836 271.60083008 C-550.8037711 269.3447517 -549.07495508 267.0622181 -547.34619141 264.77734375 C-541.93183357 257.64930103 -536.19446904 250.8479123 -530.32202148 244.0949707 C-528.77303478 242.30647021 -527.23608052 240.50834418 -525.70288086 238.70629883 C-520.90789651 233.07058573 -516.08619142 227.45882162 -511.15600586 221.94067383 C-510.35936523 221.04606445 -509.56272461 220.15145508 -508.74194336 219.22973633 C-506.78100586 217.31567383 -506.78100586 217.31567383 -504.78100586 217.31567383 C-504.56653809 216.77595947 -504.35207031 216.23624512 -504.13110352 215.68017578 C-502.29626079 212.46671252 -499.79241097 210.06140384 -497.17944336 207.48364258 C-496.62414948 206.92880692 -496.06885559 206.37397125 -495.49673462 205.80232239 C-494.32058144 204.62918593 -493.1420031 203.45847653 -491.96118164 202.29003906 C-490.17797132 200.52491649 -488.40272562 198.75209359 -486.62866211 196.9777832 C-481.34029582 191.70647556 -476.05216256 186.48947036 -470.34155273 181.67016602 C-468.77432957 180.30987908 -467.34212612 178.87507679 -465.90600586 177.37817383 C-463.78100586 175.31567383 -463.78100586 175.31567383 -461.78100586 175.31567383 C-461.78100586 174.65567383 -461.78100586 173.99567383 -461.78100586 173.31567383 C-460.29362351 171.96185234 -458.73670035 170.68427497 -457.15600586 169.44067383 C-453.34290742 166.39505253 -449.59249431 163.31308029 -445.91455078 160.10595703 C-415.7695227 133.84025169 -382.15508842 111.60158064 -347.78100586 91.31567383 C-346.96277344 90.8303418 -346.14454102 90.34500977 -345.30151367 89.8449707 C-337.01619365 84.93784214 -328.6981416 80.14446124 -320.09350586 75.81567383 C-319.15909668 75.34436035 -319.15909668 75.34436035 -318.20581055 74.86352539 C-314.42314705 73.00176163 -310.59722066 71.47111745 -306.64404297 70.0300293 C-304.13606511 69.06838034 -301.78241814 67.87635252 -299.40600586 66.62817383 C-294.99929494 64.31567383 -294.99929494 64.31567383 -292.78100586 64.31567383 C-292.78100586 63.65567383 -292.78100586 62.99567383 -292.78100586 62.31567383 C-289.41003203 60.81746324 -287.57658467 60.31567383 -283.78100586 60.31567383 C-283.78100586 59.65567383 -283.78100586 58.99567383 -283.78100586 58.31567383 C-278.10660518 55.848967 -272.49670518 53.4257998 -266.53100586 51.75317383 C-262.73015019 50.67324817 -259.43893158 49.24538334 -255.94897461 47.41333008 C-246.62552129 42.69280687 -236.69560058 39.5193694 -226.78100586 36.31567383 C-223.62624681 35.29189385 -220.67093436 34.26504094 -217.65600586 32.87817383 C-213.49942737 31.04520603 -209.15855881 30.08811387 -204.74584961 29.06176758 C-201.77166316 28.35536103 -201.77166316 28.35536103 -198.89819336 27.33911133 C-195.30022875 26.1578247 -191.66002326 25.32512999 -187.96850586 24.50317383 C-180.41438454 22.77703966 -173.0015232 20.70530356 -165.58569336 18.46411133 C-159.52273208 16.63401829 -153.58001575 15.0080226 -147.34350586 13.87817383 C-145.92161704 13.61783264 -144.49974242 13.35741387 -143.07788086 13.09692383 C-142.36051758 12.96672852 -141.6431543 12.8365332 -140.90405273 12.70239258 C-137.63161667 12.10630947 -134.36265903 11.49197402 -131.09350586 10.87817383 C-130.43334473 10.75708252 -129.77318359 10.63599121 -129.09301758 10.51123047 C-125.49237258 9.84664743 -121.91103976 9.13299152 -118.33569336 8.34301758 C-107.27933168 5.96697932 -96.22417378 4.63749903 -84.96850586 3.69067383 C-84.30378265 3.63427734 -83.63905945 3.57788086 -82.95419312 3.51977539 C-78.51687861 3.15010741 -74.07720753 2.82591387 -69.63522339 2.51779175 C-67.58854015 2.37285838 -65.54229539 2.22168094 -63.49636841 2.06643677 C-42.31617424 0.4680372 -21.23610533 -0.03106225 0 0 Z " fill="#00CFFF" transform="translate(1985.781005859375,779.684326171875)"/>
<path d="M0 0 C4.01942673 3.38832015 7.93575964 6.81094432 11.65014648 10.53662109 C12.49048935 11.37703949 13.33083221 12.21745789 14.19664001 13.08334351 C15.52049461 14.41494003 15.52049461 14.41494003 16.87109375 15.7734375 C18.25458763 17.1590538 18.25458763 17.1590538 19.66603088 18.57266235 C22.09633814 21.00675431 24.52362496 23.44383597 26.95025635 25.8815918 C29.43569364 28.3773311 31.92402932 30.87017708 34.41210938 33.36328125 C39.27755096 38.2393886 44.13980198 43.11866631 49 48 C47.41257571 51.90237525 44.74462553 54.53274287 41.80209351 57.44514465 C41.26700027 57.9826523 40.73190704 58.52015995 40.18059886 59.07395571 C38.3860305 60.8741604 36.58440168 62.66712685 34.78271484 64.46020508 C33.49450138 65.7494915 32.206721 67.03921076 30.91934204 68.32933044 C27.41947555 71.83404844 23.91338286 75.3324766 20.40602446 78.82969499 C16.73359431 82.4933406 13.06643822 86.1622583 9.39859009 89.83049011 C3.23316102 95.99498214 -2.93613034 102.15558729 -9.10791016 108.3137207 C-16.2320444 115.42216038 -23.35097018 122.53578155 -30.46689379 129.65243989 C-38.05106678 137.23729008 -45.63905053 144.81831917 -53.22814512 152.39824462 C-55.40909617 154.57706976 -57.5893407 156.75659973 -59.76942825 158.93628883 C-63.20617915 162.37203017 -66.64548727 165.80519189 -70.08673477 169.23642921 C-71.34525228 170.49204186 -72.60294345 171.74848341 -73.85971832 173.0058403 C-75.58423817 174.73085623 -77.31183207 176.45273682 -79.04019165 178.17390442 C-79.52912985 178.66439122 -80.01806806 179.15487803 -80.52182257 179.66022807 C-83.21366624 182.33377954 -85.98020881 184.87303349 -88.8530407 187.35177898 C-93.19494243 191.11895829 -97.25776866 195.12428125 -101.31115723 199.19763184 C-102.10864081 199.99496656 -102.90612439 200.79230128 -103.72777414 201.61379766 C-106.38144452 204.26815878 -109.03153006 206.92606951 -111.68164062 209.58398438 C-113.59077589 211.49504012 -115.5001129 213.40589223 -117.40971375 215.31648254 C-121.51289157 219.42253769 -125.61429154 223.53036161 -129.71452332 227.63935852 C-135.65086404 233.58829527 -141.59047888 239.53395458 -147.53097397 245.47874254 C-157.18142647 255.13625177 -166.8300086 264.79562717 -176.47705078 274.45654297 C-177.05359817 275.03391817 -177.63014555 275.61129336 -178.22416407 276.20616478 C-182.31615935 280.30405996 -186.40808748 284.40202218 -190.5 288.5 C-195.17427009 293.1811986 -199.84857056 297.86236685 -204.52294922 302.54345703 C-205.09878834 303.12012428 -205.67462747 303.69679153 -206.26791626 304.29093355 C-215.88056919 313.91728783 -225.49519755 323.54166674 -235.11122847 333.16464663 C-241.03447951 339.09236913 -246.95595007 345.02185956 -252.87510717 350.95367014 C-256.93215321 355.01916322 -260.99098415 359.08286851 -265.05120385 363.14519203 C-267.39070191 365.48603038 -269.72909159 367.82795741 -272.06581688 370.1715641 C-274.60450721 372.71749377 -277.14629333 375.26029332 -279.68884277 377.80236816 C-280.418818 378.53593835 -281.14879323 379.26950854 -281.90088892 380.02530813 C-285.9082029 384.02464327 -290.01310054 387.84590302 -294.30998731 391.53320408 C-296.41797376 393.36276781 -298.38600924 395.29962192 -300.33300781 397.29882812 C-301.08028137 398.06231567 -301.82755493 398.82580322 -302.59747314 399.61242676 C-303.37483826 400.41063843 -304.15220337 401.2088501 -304.953125 402.03125 C-306.64003214 403.74537531 -308.32754965 405.45890013 -310.015625 407.171875 C-312.65059213 409.85032996 -315.28148489 412.53234273 -317.90234375 415.22460938 C-320.4496703 417.83817399 -323.0123186 420.43584276 -325.578125 423.03125 C-326.36358704 423.84565552 -327.14904907 424.66006104 -327.95831299 425.49914551 C-328.69297791 426.23741577 -329.42764282 426.97568604 -330.18457031 427.73632812 C-331.14765106 428.72058777 -331.14765106 428.72058777 -332.13018799 429.72473145 C-334 431 -334 431 -335.94616699 430.97499084 C-338.74316636 429.64720579 -340.49545768 427.86309624 -342.67675781 425.66381836 C-344.05773651 424.28249977 -344.05773651 424.28249977 -345.46661377 422.87327576 C-346.46227919 421.86229096 -347.45777907 420.8511431 -348.453125 419.83984375 C-349.47808326 418.80928859 -350.50370714 417.77939506 -351.52996826 416.75013733 C-354.22617017 414.04249408 -356.91324072 411.32596228 -359.59851074 408.60748291 C-362.34146729 405.83381027 -365.09296124 403.06863571 -367.84375 400.30273438 C-373.2375602 394.87677256 -378.62175234 389.44139257 -384 384 C-382.08549739 380.60366099 -380.10776757 377.85816838 -377.35224915 375.10501099 C-376.61924088 374.36780823 -375.8862326 373.63060547 -375.13101196 372.87106323 C-374.33150116 372.07717194 -373.53199036 371.28328064 -372.70825195 370.46533203 C-371.86235001 369.61753174 -371.01644806 368.76973145 -370.14491272 367.89624023 C-367.83011477 365.57837727 -365.51091519 363.26503413 -363.18951058 360.95379114 C-360.75293773 358.52603405 -358.32167084 356.0929737 -355.88969421 353.66061401 C-351.80169119 349.57354677 -347.70984034 345.49036452 -343.61547852 341.40966797 C-338.89809895 336.70797614 -334.18592788 332.00111661 -329.47675353 327.29120743 C-324.44574096 322.25951611 -319.41091504 317.23165365 -314.3749845 312.20488501 C-312.9332646 310.76528485 -311.49224591 309.32498603 -310.05138588 307.8845253 C-307.34966316 305.18498326 -304.6446645 302.48876715 -301.9387207 299.79345703 C-300.75463623 298.60869278 -300.75463623 298.60869278 -299.54663086 297.3999939 C-298.79952347 296.65715149 -298.05241608 295.91430908 -297.28266907 295.1489563 C-296.64499761 294.51296068 -296.00732615 293.87696507 -295.35033131 293.22169685 C-293.35758157 291.33801101 -291.32728349 289.54344298 -289.25178051 287.75304222 C-284.87899891 283.94648866 -280.77691612 279.91057434 -276.68884277 275.80236816 C-275.89135919 275.00503344 -275.09387561 274.20769872 -274.27222586 273.38620234 C-271.61855548 270.73184122 -268.96846994 268.07393049 -266.31835938 265.41601562 C-264.40922411 263.50495988 -262.4998871 261.59410777 -260.59028625 259.68351746 C-256.48710843 255.57746231 -252.38570846 251.46963839 -248.28547668 247.36064148 C-242.34913596 241.41170473 -236.40952112 235.46604542 -230.46902603 229.52125746 C-220.81857353 219.86374823 -211.1699914 210.20437283 -201.52294922 200.54345703 C-200.94640183 199.96608183 -200.36985445 199.38870664 -199.77583593 198.79383522 C-195.68384065 194.69594004 -191.59191252 190.59797782 -187.5 186.5 C-182.82572991 181.8188014 -178.15142944 177.13763315 -173.47705078 172.45654297 C-172.90121166 171.87987572 -172.32537253 171.30320847 -171.73208374 170.70906645 C-162.11943081 161.08271217 -152.50480245 151.45833326 -142.88877153 141.83535337 C-136.96552049 135.90763087 -131.04404993 129.97814044 -125.12489283 124.04632986 C-121.06784679 119.98083678 -117.00901585 115.91713149 -112.94879615 111.85480797 C-110.60929809 109.51396962 -108.27090841 107.17204259 -105.93418312 104.8284359 C-103.39549279 102.28250623 -100.85370667 99.73970668 -98.31115723 97.19763184 C-97.581182 96.46406165 -96.85120677 95.73049146 -96.09911108 94.97469187 C-92.10791763 90.99144516 -88.01225037 87.19901567 -83.74263811 83.51596105 C-81.72771174 81.76313017 -79.81173276 79.93489901 -77.92492676 78.04518127 C-77.22396881 77.34559799 -76.52301086 76.64601471 -75.80081177 75.92523193 C-74.69381424 74.81284149 -74.69381424 74.81284149 -73.56445312 73.67797852 C-72.76349213 72.87716354 -71.96253113 72.07634857 -71.13729858 71.25126648 C-68.5162356 68.62951228 -65.89872278 66.00424438 -63.28125 63.37890625 C-61.45444261 61.55023187 -59.62741288 59.72177956 -57.8001709 57.89353943 C-53.49908488 53.58903814 -49.20023089 49.28231966 -44.90247488 44.97449392 C-40.00474193 40.06553775 -35.10412901 35.1594609 -30.20328617 30.25360978 C-20.13234308 20.17224733 -10.06497597 10.0873197 0 0 Z " fill="#00CEFD" transform="translate(2804,416)"/>
<path d="M0 0 C1.58197021 2.30197144 1.58197021 2.30197144 3.11621094 5.39013672 C3.98666046 7.11730423 3.98666046 7.11730423 4.87469482 8.87936401 C5.49506425 10.14590545 6.11494596 11.41268588 6.734375 12.6796875 C7.37779485 13.97196923 8.02228 15.26372104 8.66778564 16.55496216 C10.01781561 19.26275452 11.35840936 21.97494081 12.69189453 24.69091797 C14.40217739 28.17374607 16.12980969 31.6475884 17.86385727 35.11863518 C19.19511326 37.78584637 20.51990842 40.45622169 21.84247589 43.1277504 C22.47748791 44.40984319 23.11385106 45.69126768 23.75157928 46.97201157 C24.64097226 48.76199953 25.52138614 50.55644052 26.40136719 52.35107422 C27.15604279 53.88210281 27.15604279 53.88210281 27.92596436 55.44406128 C29 58 29 58 29 61 C-16.89353463 83.98099174 -62.78802248 106.96007849 -108.68780518 129.92858887 C-109.36674644 130.26833561 -110.04568771 130.60808236 -110.74520295 130.95812447 C-125.49915309 138.34108485 -140.25328126 145.72368937 -155.00759296 153.10592714 C-162.24272532 156.72598807 -169.47781831 160.34612766 -176.71289062 163.96630859 C-177.43288177 164.32656568 -178.15287291 164.68682277 -178.89468196 165.05799674 C-202.24677886 176.74257336 -225.59627016 188.43234571 -248.94442105 200.12480497 C-272.93048443 212.13668851 -296.91915653 224.14334605 -320.91114043 236.14340019 C-324.29704094 237.83692679 -327.68291146 239.53051332 -331.06876373 241.22413635 C-331.73517257 241.55747562 -332.40158141 241.89081488 -333.08818446 242.23425534 C-343.83101853 247.60803912 -354.57107474 252.98735225 -365.31011153 258.36871983 C-376.09709756 263.77396806 -386.88696657 269.17342408 -397.67983386 274.56691968 C-403.5313864 277.49130532 -409.38150465 280.41849696 -415.22822952 283.35252571 C-420.57399017 286.03508764 -425.923341 288.71033875 -431.2757248 291.37966019 C-433.21796729 292.3499314 -435.15884091 293.32294824 -437.09824166 294.29888719 C-439.72196757 295.61870305 -442.35036612 296.92869421 -444.98023605 298.23621368 C-446.12441573 298.81618456 -446.12441573 298.81618456 -447.29171014 299.40787202 C-450.84721231 301.16279042 -452.96180953 302 -457 302 C-460.79056145 294.51155021 -464.57246601 287.01881978 -468.34339142 279.52046585 C-470.0946477 276.03882938 -471.84884993 272.55874414 -473.60986328 269.08203125 C-475.30916785 265.72687732 -477.00062978 262.36787737 -478.6867218 259.00606537 C-479.33142733 257.72404613 -479.97894818 256.44343868 -480.62931824 255.16428375 C-481.53961228 253.37272176 -482.43900117 251.57563146 -483.33789062 249.77832031 C-483.85307251 248.75683899 -484.36825439 247.73535767 -484.89904785 246.68292236 C-486 244 -486 244 -486 240 C-440.10766667 217.00249805 -394.21390367 194.00785214 -348.31219482 171.02906799 C-347.63325356 170.68918319 -346.95431229 170.34929838 -346.25479705 169.99911404 C-331.5009369 162.61320605 -316.74680966 155.22783177 -301.99240704 147.84300753 C-294.7572581 144.22169093 -287.52216823 140.60025634 -280.28710938 136.97875977 C-279.56711823 136.61837192 -278.84712709 136.25798407 -278.10531804 135.88667538 C-254.75212697 124.19728699 -231.40284886 112.50010745 -208.05557895 100.79889781 C-184.07093675 88.77830061 -160.08238522 76.76554132 -136.08885957 64.76268482 C-132.70294602 63.06886353 -129.31707746 61.37495233 -125.93123627 59.6809864 C-125.26482743 59.34757972 -124.59841859 59.01417303 -123.91181554 58.6706631 C-113.16788204 53.29514587 -102.42812349 47.91133809 -91.68988847 42.52444813 C-80.90436056 37.11405374 -70.1145182 31.71234729 -59.32016614 26.31957894 C-53.46756231 23.39536335 -47.61713049 20.46694455 -41.77177048 17.52826881 C-36.42769774 14.84171463 -31.07828381 12.1661364 -25.7242752 9.49944092 C-23.78132998 8.52924382 -21.84043745 7.55492358 -19.90175834 6.57622962 C-17.27978301 5.25332057 -14.65095175 3.94520358 -12.01976395 2.64073849 C-11.2569775 2.25146422 -10.49419105 1.86218996 -9.70828986 1.4611195 C-3.74430578 -1.46342336 -3.74430578 -1.46342336 0 0 Z " fill="#00CFFE" transform="translate(3132,795)"/>
<path d="M0 0 C4.1230414 16.7844768 8.18725568 33.57947749 12 50.4375 C12.22987106 51.44914719 12.22987106 51.44914719 12.46438599 52.48123169 C12.89550784 54.38143466 13.32284982 56.28249404 13.75 58.18359375 C13.99234375 59.26181396 14.2346875 60.34003418 14.484375 61.45092773 C15 64 15 64 15 66 C-14.180845 73.23070015 -43.46554813 79.98420332 -72.77266693 86.68173599 C-79.3881353 88.19423928 -86.0029101 89.70976883 -92.61767578 91.2253418 C-93.29464028 91.38044366 -93.97160478 91.53554551 -94.66908336 91.69534743 C-97.43720677 92.32956627 -100.20532799 92.96379469 -102.97344005 93.59806305 C-107.21220957 94.56929857 -111.45103564 95.54028679 -115.68990362 96.51109248 C-146.5400682 103.57670135 -177.38230665 110.67665722 -208.22368377 117.780509 C-216.36349488 119.655385 -224.50340008 121.52985232 -232.64331055 123.40429688 C-234.10991131 123.74202463 -235.57651204 124.0797525 -237.04311275 124.41748047 C-239.22753883 124.92050871 -241.41196505 125.4235363 -243.59639186 125.92656136 C-247.90587671 126.91894228 -252.21535356 127.91135795 -256.52482456 128.90379906 C-274.51736929 133.04733891 -292.51030455 137.18917703 -310.50390625 141.328125 C-312.10057979 141.69540396 -312.10057979 141.69540396 -313.72950935 142.07010269 C-324.91035228 144.641941 -336.0913889 147.21293485 -347.27270508 149.78271484 C-351.17921243 150.68060659 -355.08570491 151.57856301 -358.9921875 152.4765625 C-359.95148603 152.6970715 -360.91078457 152.91758049 -361.89915276 153.14477158 C-375.95535977 156.37614216 -390.00942988 159.61670009 -404.06242371 162.86201477 C-412.31287752 164.76728531 -420.56381899 166.67044001 -428.81486988 168.57312298 C-435.56295704 170.12943437 -442.31038068 171.68858158 -449.05731964 173.24986267 C-453.18568297 174.20447999 -457.31466498 175.15639858 -461.44382858 176.10754776 C-463.36460222 176.55059281 -465.28511147 176.99478581 -467.20534134 177.44018173 C-469.82509542 178.04768009 -472.44573994 178.65117545 -475.06665039 179.25366211 C-475.83409797 179.4326558 -476.60154554 179.61164949 -477.39224911 179.79606724 C-480.33172621 180.46816818 -482.97338079 181 -486 181 C-489.3442782 168.9547548 -492.242444 156.81400343 -495.05639648 144.63525391 C-495.5648637 142.44278662 -496.07796481 140.25138935 -496.59545898 138.06103516 C-497.35091262 134.86322484 -498.09299389 131.66257626 -498.83203125 128.4609375 C-499.06525589 127.48385834 -499.29848053 126.50677917 -499.53877258 125.50009155 C-499.74616562 124.58788849 -499.95355865 123.67568542 -500.16723633 122.73583984 C-500.35280594 121.93947113 -500.53837555 121.14310242 -500.72956848 120.32260132 C-501.03899033 117.66513151 -500.57041453 115.59862324 -500 113 C-365.32994022 81.99252843 -365.32994022 81.99252843 -308.5625 68.9375 C-307.57130661 68.7095512 -306.58011322 68.4816024 -305.55888367 68.24674606 C-296.62178588 66.19146099 -287.68466805 64.13626311 -278.74752808 62.0811615 C-259.30667306 57.61071976 -239.86603363 53.13934093 -220.42541695 48.66786289 C-213.14528935 46.99339424 -205.86513116 45.3190587 -198.58496094 43.64477539 C-194.44596105 42.69288191 -190.30696377 41.74097714 -186.16796875 40.7890625 C-184.62926054 40.43517991 -184.62926054 40.43517991 -183.05946732 40.07414818 C-171.30850106 37.37153261 -159.55767933 34.66829019 -147.80712891 31.96386719 C-146.15969476 31.5847072 -146.15969476 31.5847072 -144.47897911 31.19788742 C-140.04387311 30.17712588 -135.6087705 29.15634961 -131.17368698 28.13549042 C-119.3454813 25.41291612 -107.51699972 22.69155619 -95.6875 19.97460938 C-92.63000717 19.27232265 -89.57251578 18.57002959 -86.51502609 17.86772919 C-84.52771151 17.4112586 -82.5403891 16.95482211 -80.55305862 16.49842072 C-69.2270263 13.89701889 -57.9034784 11.28543308 -46.58476257 8.65237427 C-41.11496214 7.38004318 -35.64341936 6.11528186 -30.17172241 4.85113525 C-27.75707697 4.29140071 -25.34317156 3.72846241 -22.93008423 3.16204834 C-19.73643787 2.41249777 -16.54051087 1.67363252 -13.34375 0.9375 C-12.43554001 0.7211087 -11.52733002 0.50471741 -10.59159851 0.2817688 C-9.7692421 0.09468353 -8.94688568 -0.09240173 -8.09960938 -0.28515625 C-7.39751343 -0.44894775 -6.69541748 -0.61273926 -5.9720459 -0.78149414 C-3.74081516 -1.0287181 -2.12951 -0.66516441 0 0 Z " fill="#00CAF8" transform="translate(3289,1218)"/>
<path d="M0 0 C1.58197021 2.30197144 1.58197021 2.30197144 3.11621094 5.39013672 C3.98666046 7.11730423 3.98666046 7.11730423 4.87469482 8.87936401 C5.49506425 10.14590545 6.11494596 11.41268588 6.734375 12.6796875 C7.37779485 13.97196923 8.02228 15.26372104 8.66778564 16.55496216 C10.01781561 19.26275452 11.35840936 21.97494081 12.69189453 24.69091797 C14.40217739 28.17374607 16.12980969 31.6475884 17.86385727 35.11863518 C19.19511326 37.78584637 20.51990842 40.45622169 21.84247589 43.1277504 C22.47748791 44.40984319 23.11385106 45.69126768 23.75157928 46.97201157 C24.64097226 48.76199953 25.52138614 50.55644052 26.40136719 52.35107422 C27.15604279 53.88210281 27.15604279 53.88210281 27.92596436 55.44406128 C29 58 29 58 29 61 C-16.92176517 83.99510254 -62.84448157 106.98830414 -108.77249146 129.97093201 C-109.45170884 130.31081681 -110.13092622 130.65070162 -110.83072594 131.00088596 C-125.59021204 138.38661414 -140.34987609 145.77198663 -155.10972362 153.15699247 C-162.34743351 156.77834219 -169.58510404 160.39977055 -176.82275391 164.02124023 C-177.9031329 164.56182201 -177.9031329 164.56182201 -179.00533772 165.11332462 C-202.37141338 176.80489261 -225.73488365 188.50165592 -249.09701549 200.20110219 C-273.09482628 212.21885385 -297.09524185 224.23138741 -321.09897041 236.23731518 C-324.48551241 237.93116254 -327.87202444 239.62506983 -331.25851822 241.3190136 C-331.9250619 241.65242028 -332.59160559 241.98582697 -333.27834757 242.3293369 C-344.0290148 247.70703846 -354.77690339 253.090271 -365.52377559 258.47555187 C-376.31521104 263.88301685 -387.10952229 269.28470396 -397.90683661 274.68042106 C-403.76219237 277.60670707 -409.61610787 280.53581106 -415.46664047 283.47173119 C-420.81353626 286.15484523 -426.16400574 288.83068141 -431.51752259 291.50055908 C-433.46242188 292.47215716 -435.40594647 293.44651248 -437.34800802 294.42377038 C-439.97052196 295.74295255 -442.59767801 297.05236768 -445.22633171 298.35926151 C-446.37839242 298.94317291 -446.37839242 298.94317291 -447.55372709 299.5388805 C-449.34018085 300.420561 -451.16693694 301.21983505 -453 302 C-453.66 301.67 -454.32 301.34 -455 301 C-442.14117291 294.17187874 -429.20228439 287.52980033 -416.17585754 281.02780151 C-414.25371655 280.06651236 -412.33166367 279.105047 -410.40969008 278.1434232 C-405.18598402 275.53046341 -399.96104935 272.9199692 -394.73589194 270.30991316 C-389.07968281 267.48398358 -383.42464286 264.65571605 -377.76945496 261.82774353 C-367.99049398 256.93800186 -358.21081347 252.04970233 -348.43061256 247.16244125 C-338.18302663 242.04161567 -327.93586113 236.9199503 -317.68924522 231.79718399 C-317.05005906 231.47762528 -316.41087291 231.15806657 -315.75231747 230.82882426 C-312.50568105 229.20567524 -309.25905203 227.58251142 -306.01242586 225.9593419 C-283.06873638 214.48854493 -260.12412182 203.01959949 -237.17895508 191.55175781 C-214.90016253 180.41696018 -192.62179412 169.28131463 -170.34399414 158.14453125 C-169.65623931 157.8007196 -168.96848447 157.45690794 -168.25988858 157.10267775 C-161.35262279 153.64970417 -154.44536557 150.19671346 -147.53811462 146.7437102 C-133.4696071 139.71072425 -119.40104246 132.67785256 -105.33244324 125.64505005 C-104.68571586 125.32175501 -104.03898849 124.99845997 -103.37266332 124.6653681 C-60.2493997 103.10832984 -17.12480092 81.55396271 26 60 C24.69805624 56.00717576 23.27256306 52.29976143 21.38623047 48.54541016 C20.60564774 46.98447128 20.60564774 46.98447128 19.80929565 45.39199829 C18.97170212 43.73229507 18.97170212 43.73229507 18.1171875 42.0390625 C17.25578659 40.32050552 17.25578659 40.32050552 16.37698364 38.56723022 C14.8582171 35.53729385 13.33465918 32.50979215 11.81005859 29.48278809 C10.25195701 26.38712907 8.6984434 23.28916971 7.14453125 20.19140625 C4.10056033 14.12548426 1.05202977 8.06187087 -2 2 C-7.01119746 3.51429672 -11.51029492 5.61674434 -16.16656876 7.96302986 C-16.9765585 8.36717049 -17.78654825 8.77131111 -18.62108314 9.18769842 C-21.34226119 10.5466395 -24.06053601 11.91128852 -26.77886963 13.27590942 C-28.74585541 14.25968227 -30.71301837 15.24310095 -32.68034339 16.22619522 C-38.09187531 18.93166519 -43.50089819 21.64211823 -48.90953875 24.3533628 C-54.14175296 26.97518211 -59.37585158 29.59323164 -64.6099239 32.21133906 C-75.31698203 37.56720258 -86.02222934 42.92667582 -96.72650909 48.28808975 C-111.3393404 55.6071052 -125.95479208 62.92087589 -140.57095072 70.23324393 C-147.37849145 73.63902058 -154.18590366 77.04505412 -160.99328232 80.45115471 C-161.67473462 80.79212187 -162.35618692 81.13308903 -163.05828928 81.48438853 C-179.27707376 89.59959168 -195.4945985 97.71731112 -211.71191406 105.83544922 C-212.42150035 106.19065601 -213.13108663 106.5458628 -213.86217554 106.91183343 C-224.65816535 112.31612574 -235.45408959 117.72054905 -246.25 123.125 C-257.76981889 128.89184 -269.28966298 134.65862965 -280.80957031 140.42529297 C-281.51938564 140.78061522 -282.22920097 141.13593748 -282.96052586 141.50202707 C-299.15769923 149.61005723 -315.35523032 157.71737164 -331.55389023 165.82243156 C-332.23414323 166.16279906 -332.91439624 166.50316656 -333.61526298 166.85384822 C-340.40513742 170.25117039 -347.19507468 173.648367 -353.98510586 177.04537591 C-368.58815066 184.35122014 -383.19008272 191.65927596 -397.78979876 198.97177021 C-408.42744749 204.29976015 -419.06648102 209.62497536 -429.70689705 214.94743671 C-435.47617695 217.833427 -441.24477159 220.72076696 -447.01164246 223.61156845 C-452.28228161 226.25359514 -457.55471679 228.89199952 -462.82865307 231.52743815 C-464.74440899 232.48558941 -466.65947548 233.44512053 -468.57380965 234.40610923 C-471.15965692 235.70395861 -473.74787725 236.99694326 -476.33679581 238.28865242 C-477.09349512 238.66991494 -477.85019444 239.05117746 -478.62982404 239.44399339 C-483.77171732 242 -483.77171732 242 -486 242 C-486 241.34 -486 240.68 -486 240 C-440.10766667 217.00249805 -394.21390367 194.00785214 -348.31219482 171.02906799 C-347.63325356 170.68918319 -346.95431229 170.34929838 -346.25479705 169.99911404 C-331.5009369 162.61320605 -316.74680966 155.22783177 -301.99240704 147.84300753 C-294.7572581 144.22169093 -287.52216823 140.60025634 -280.28710938 136.97875977 C-279.56711823 136.61837192 -278.84712709 136.25798407 -278.10531804 135.88667538 C-254.75212697 124.19728699 -231.40284886 112.50010745 -208.05557895 100.79889781 C-184.07093675 88.77830061 -160.08238522 76.76554132 -136.08885957 64.76268482 C-132.70294602 63.06886353 -129.31707746 61.37495233 -125.93123627 59.6809864 C-125.26482743 59.34757972 -124.59841859 59.01417303 -123.91181554 58.6706631 C-113.16788204 53.29514587 -102.42812349 47.91133809 -91.68988847 42.52444813 C-80.90436056 37.11405374 -70.1145182 31.71234729 -59.32016614 26.31957894 C-53.46756231 23.39536335 -47.61713049 20.46694455 -41.77177048 17.52826881 C-36.42769774 14.84171463 -31.07828381 12.1661364 -25.7242752 9.49944092 C-23.78132998 8.52924382 -21.84043745 7.55492358 -19.90175834 6.57622962 C-17.27978301 5.25332057 -14.65095175 3.94520358 -12.01976395 2.64073849 C-11.2569775 2.25146422 -10.49419105 1.86218996 -9.70828986 1.4611195 C-3.74430578 -1.46342336 -3.74430578 -1.46342336 0 0 Z " fill="#00485B" transform="translate(3132,795)"/>
<path d="M0 0 C4.01942673 3.38832015 7.93575964 6.81094432 11.65014648 10.53662109 C12.49048935 11.37703949 13.33083221 12.21745789 14.19664001 13.08334351 C15.52049461 14.41494003 15.52049461 14.41494003 16.87109375 15.7734375 C18.25458763 17.1590538 18.25458763 17.1590538 19.66603088 18.57266235 C22.09633814 21.00675431 24.52362496 23.44383597 26.95025635 25.8815918 C29.43569364 28.3773311 31.92402932 30.87017708 34.41210938 33.36328125 C39.27755096 38.2393886 44.13980198 43.11866631 49 48 C47.40821971 51.92570652 44.70805719 54.56640918 41.7482605 57.49224854 C41.20752274 58.03469515 40.66678498 58.57714176 40.10966122 59.13602614 C38.29641438 60.9525674 36.47611144 62.76186772 34.65576172 64.57128906 C33.3545611 65.87192556 32.05380068 67.17300257 30.75344849 68.4744873 C27.22095427 72.00755599 23.68232188 75.53441876 20.14257193 79.06021595 C16.44476067 82.74553558 12.75260198 86.43650928 9.05984497 90.12689209 C2.06571575 97.11480194 -4.93349669 104.09759734 -11.93454063 111.07857871 C-19.90451653 119.02620987 -27.86882286 126.97951209 -35.83265328 134.9333005 C-52.21545916 151.29519401 -68.60538744 167.6499374 -85 184 C-85.66 183.67 -86.32 183.34 -87 183 C-85.6731494 181.47350752 -84.33808862 179.95415113 -83 178.4375 C-82.2575 177.59058594 -81.515 176.74367188 -80.75 175.87109375 C-78.72229733 173.75410304 -76.7727222 171.91648125 -74.55041504 170.03575134 C-68.92373738 165.14039062 -63.70462688 159.83651502 -58.44335938 154.55688477 C-57.2995518 153.41279461 -56.15552298 152.26892561 -55.0112915 151.1252594 C-51.92697662 148.04122973 -48.84574021 144.95414129 -45.76507378 141.86646771 C-42.53712047 138.63223484 -39.30630782 135.40086079 -36.07580566 132.16917419 C-29.96834881 126.05861755 -23.86344411 119.94551777 -17.75946665 113.83148569 C-10.80613979 106.8669556 -3.84995057 99.90528743 3.10647297 92.94385064 C17.40748821 78.63240163 31.70492972 64.317387 46 50 C44.39656373 46.61982162 42.61871035 44.35077936 39.98095703 41.67456055 C39.15314728 40.8307634 38.32533752 39.98696625 37.47244263 39.11759949 C36.12870071 37.76581352 36.12870071 37.76581352 34.7578125 36.38671875 C33.8378952 35.45777298 32.91797791 34.52882721 31.97018433 33.57173157 C30.02533307 31.61042188 28.07615875 29.6535207 26.12451172 27.69897461 C23.62183502 25.19089454 21.13574271 22.66702877 18.65326118 20.13897991 C16.28247311 17.73136678 13.89406421 15.3415055 11.5078125 12.94921875 C10.61603302 12.03790695 9.72425354 11.12659515 8.80545044 10.18766785 C7.97133636 9.3596315 7.13722229 8.53159515 6.27783203 7.6784668 C5.5466214 6.94218552 4.81541077 6.20590424 4.06204224 5.4473114 C2.15675635 3.77233284 2.15675635 3.77233284 0.09950447 4.20328808 C-2.44146994 5.16752732 -3.7399268 6.37319594 -5.65411377 8.30007935 C-6.71782448 9.3597718 -6.71782448 9.3597718 -7.80302429 10.44087219 C-8.5708876 11.22109238 -9.33875092 12.00131256 -10.12988281 12.80517578 C-10.94667007 13.62313126 -11.76345734 14.44108673 -12.60499573 15.28382874 C-15.3113931 17.99742992 -18.00711645 20.7213929 -20.703125 23.4453125 C-22.58324026 25.33356449 -24.46398415 27.22116733 -26.34564209 29.10787964 C-30.80067091 33.57740333 -35.24842908 38.05408526 -39.69326186 42.5337466 C-47.63391345 50.53618295 -55.58654081 58.52670828 -63.54217219 66.51424968 C-66.7775703 69.76329117 -70.00776664 73.01744892 -73.2366333 76.27297974 C-74.94184749 77.98822606 -76.64714508 79.70338948 -78.35253906 81.41845703 C-79.49218864 82.57056923 -79.49218864 82.57056923 -80.65486145 83.74595642 C-81.7354911 84.8310273 -81.7354911 84.8310273 -82.83795166 85.9380188 C-83.45220127 86.55708666 -84.06645088 87.17615452 -84.69931412 87.81398201 C-86.67095237 89.68735235 -88.6821651 91.46575407 -90.74068069 93.24152184 C-95.11639857 97.0496107 -99.22081521 101.08714582 -103.31115723 105.19763184 C-104.10864081 105.99496656 -104.90612439 106.79230128 -105.72777414 107.61379766 C-108.38144452 110.26815878 -111.03153006 112.92606951 -113.68164062 115.58398438 C-115.59077589 117.49504012 -117.5001129 119.40589223 -119.40971375 121.31648254 C-123.51289157 125.42253769 -127.61429154 129.53036161 -131.71452332 133.63935852 C-137.65086404 139.58829527 -143.59047888 145.53395458 -149.53097397 151.47874254 C-159.18142647 161.13625177 -168.8300086 170.79562717 -178.47705078 180.45654297 C-179.05359817 181.03391817 -179.63014555 181.61129336 -180.22416407 182.20616478 C-184.31615935 186.30405996 -188.40808748 190.40202218 -192.5 194.5 C-197.17427009 199.1811986 -201.84857056 203.86236685 -206.52294922 208.54345703 C-207.09878834 209.12012428 -207.67462747 209.69679153 -208.26791626 210.29093355 C-217.88056919 219.91728783 -227.49519755 229.54166674 -237.11122847 239.16464663 C-243.03447951 245.09236913 -248.95595007 251.02185956 -254.87510717 256.95367014 C-258.93215321 261.01916322 -262.99098415 265.08286851 -267.05120385 269.14519203 C-269.39070191 271.48603038 -271.72909159 273.82795741 -274.06581688 276.1715641 C-276.60450721 278.71749377 -279.14629333 281.26029332 -281.68884277 283.80236816 C-282.418818 284.53593835 -283.14879323 285.26950854 -283.90088892 286.02530813 C-287.89163659 290.00810995 -291.98673238 293.80032098 -296.25587344 297.48296165 C-298.27876791 299.24247186 -300.20337274 301.07757647 -302.09957886 302.97259521 C-302.80606064 303.67625717 -303.51254242 304.37991913 -304.24043274 305.10490417 C-304.98463974 305.85113541 -305.72884674 306.59736664 -306.49560547 307.36621094 C-307.70685844 308.57483543 -307.70685844 308.57483543 -308.94258118 309.80787659 C-311.58662208 312.4475485 -314.22702672 315.09082268 -316.8671875 317.734375 C-318.71169676 319.57821013 -320.5563544 321.42189683 -322.40115356 323.26544189 C-326.25425949 327.11673624 -330.10526907 330.97011728 -333.95507812 334.82470703 C-338.40331449 339.27840343 -342.85516781 343.72846003 -347.30887878 348.17668128 C-351.60507489 352.4677944 -355.89845697 356.76171141 -360.19064713 361.05683136 C-362.01361777 362.88046973 -363.83733333 364.70336378 -365.66180038 366.52550507 C-368.20387807 369.06505111 -370.74274166 371.60776684 -373.28076172 374.15136719 C-374.03711411 374.90569534 -374.79346649 375.6600235 -375.57273865 376.43721008 C-376.26230148 377.12959274 -376.95186432 377.8219754 -377.662323 378.53533936 C-378.2621594 379.13555279 -378.86199581 379.73576622 -379.48000908 380.35416794 C-381.2005861 382.13078048 -381.2005861 382.13078048 -383 385 C-383.33 384.34 -383.66 383.68 -384 383 C-379.10183863 377.25345066 -373.96655152 371.82268654 -368.62133789 366.49194336 C-367.81386612 365.68271927 -367.00639435 364.87349518 -366.17445374 364.03974915 C-363.52635022 361.38727385 -360.87464037 358.73843874 -358.22265625 356.08984375 C-356.36837915 354.23489227 -354.51425046 352.37979243 -352.66026306 350.52455139 C-348.7828716 346.64534738 -344.90339211 342.76824097 -341.02270508 338.89233398 C-336.55434879 334.42941855 -332.08960601 329.96291245 -327.6267224 325.4945249 C-323.31000988 321.17270459 -318.99046354 316.85372813 -314.66973686 312.5359211 C-312.84185941 310.70870818 -311.01471747 308.88075917 -309.18834114 307.05204582 C-306.63066602 304.49181609 -304.06978109 301.93483932 -301.50805664 299.37866211 C-300.76235413 298.63093536 -300.01665161 297.88320862 -299.24835205 297.11282349 C-298.54068192 296.40797318 -297.83301178 295.70312286 -297.10389709 294.97691345 C-296.50091828 294.37431167 -295.89793947 293.77170988 -295.27668858 293.15084743 C-293.31241887 291.29515031 -291.30838319 289.52822257 -289.26295376 287.7637949 C-284.88672931 283.95331511 -280.78056744 279.91424364 -276.68884277 275.80236816 C-275.89135919 275.00503344 -275.09387561 274.20769872 -274.27222586 273.38620234 C-271.61855548 270.73184122 -268.96846994 268.07393049 -266.31835938 265.41601562 C-264.40922411 263.50495988 -262.4998871 261.59410777 -260.59028625 259.68351746 C-256.48710843 255.57746231 -252.38570846 251.46963839 -248.28547668 247.36064148 C-242.34913596 241.41170473 -236.40952112 235.46604542 -230.46902603 229.52125746 C-220.81857353 219.86374823 -211.1699914 210.20437283 -201.52294922 200.54345703 C-200.94640183 199.96608183 -200.36985445 199.38870664 -199.77583593 198.79383522 C-195.68384065 194.69594004 -191.59191252 190.59797782 -187.5 186.5 C-182.82572991 181.8188014 -178.15142944 177.13763315 -173.47705078 172.45654297 C-172.90121166 171.87987572 -172.32537253 171.30320847 -171.73208374 170.70906645 C-162.11943081 161.08271217 -152.50480245 151.45833326 -142.88877153 141.83535337 C-136.96552049 135.90763087 -131.04404993 129.97814044 -125.12489283 124.04632986 C-121.06784679 119.98083678 -117.00901585 115.91713149 -112.94879615 111.85480797 C-110.60929809 109.51396962 -108.27090841 107.17204259 -105.93418312 104.8284359 C-103.39549279 102.28250623 -100.85370667 99.73970668 -98.31115723 97.19763184 C-97.581182 96.46406165 -96.85120677 95.73049146 -96.09911108 94.97469187 C-92.10791763 90.99144516 -88.01225037 87.19901567 -83.74263811 83.51596105 C-81.72771174 81.76313017 -79.81173276 79.93489901 -77.92492676 78.04518127 C-77.22396881 77.34559799 -76.52301086 76.64601471 -75.80081177 75.92523193 C-74.69381424 74.81284149 -74.69381424 74.81284149 -73.56445312 73.67797852 C-72.76349213 72.87716354 -71.96253113 72.07634857 -71.13729858 71.25126648 C-68.5162356 68.62951228 -65.89872278 66.00424438 -63.28125 63.37890625 C-61.45444261 61.55023187 -59.62741288 59.72177956 -57.8001709 57.89353943 C-53.49908488 53.58903814 -49.20023089 49.28231966 -44.90247488 44.97449392 C-40.00474193 40.06553775 -35.10412901 35.1594609 -30.20328617 30.25360978 C-20.13234308 20.17224733 -10.06497597 10.0873197 0 0 Z " fill="#003C4D" transform="translate(2804,416)"/>
<path d="M0 0 C0.99 0.495 0.99 0.495 2 1 C-63.67 66.67 -129.34 132.34 -197 200 C-197.66 199.67 -198.32 199.34 -199 199 C-197.6731494 197.47350752 -196.33808862 195.95415113 -195 194.4375 C-194.2575 193.59058594 -193.515 192.74367188 -192.75 191.87109375 C-190.65818369 189.68716621 -188.60846445 187.76015313 -186.32009125 185.80500698 C-182.08077442 182.11787746 -178.09169071 178.22880151 -174.12854004 174.24879456 C-173.37849811 173.49960705 -172.62845618 172.75041955 -171.85568571 171.97852939 C-169.36300139 169.48748176 -166.87388924 166.99289621 -164.38476562 164.49829102 C-162.59071986 162.70396297 -160.79645345 160.90985551 -159.00198364 159.11595154 C-155.14933423 155.26352926 -151.29821471 151.40958797 -147.44850159 147.55423164 C-141.88257378 141.98015022 -136.31386149 136.40885738 -130.74448246 130.83822452 C-121.70692737 121.79848497 -112.67160415 112.75651811 -103.63769531 103.71313477 C-94.8660859 94.93233555 -86.09341878 86.15259528 -77.31933594 77.37426758 C-76.77780453 76.83247345 -76.23627312 76.29067932 -75.67833167 75.73246718 C-72.96141302 73.01424342 -70.24447366 70.29604036 -67.52752399 67.5778476 C-45.01513728 45.05510713 -22.5064148 22.52870811 0 0 Z " fill="#004F65" transform="translate(2713,602)"/>
<path d="M0 0 C5.96118297 4.93997261 11.41486302 10.28529862 16.87109375 15.7734375 C17.793423 16.6971817 18.71575226 17.6209259 19.66603088 18.57266235 C22.09633814 21.00675431 24.52362496 23.44383597 26.95025635 25.8815918 C29.43569364 28.3773311 31.92402932 30.87017708 34.41210938 33.36328125 C39.27755096 38.2393886 44.13980198 43.11866631 49 48 C47.40821971 51.92570652 44.70805719 54.56640918 41.7482605 57.49224854 C41.20752274 58.03469515 40.66678498 58.57714176 40.10966122 59.13602614 C38.29641438 60.9525674 36.47611144 62.76186772 34.65576172 64.57128906 C33.3545611 65.87192556 32.05380068 67.17300257 30.75344849 68.4744873 C27.22095427 72.00755599 23.68232188 75.53441876 20.14257193 79.06021595 C16.44476067 82.74553558 12.75260198 86.43650928 9.05984497 90.12689209 C2.06571575 97.11480194 -4.93349669 104.09759734 -11.93454063 111.07857871 C-19.90451653 119.02620987 -27.86882286 126.97951209 -35.83265328 134.9333005 C-52.21545916 151.29519401 -68.60538744 167.6499374 -85 184 C-85.66 183.67 -86.32 183.34 -87 183 C-85.6731494 181.47350752 -84.33808862 179.95415113 -83 178.4375 C-82.2575 177.59058594 -81.515 176.74367188 -80.75 175.87109375 C-78.72229733 173.75410304 -76.7727222 171.91648125 -74.55041504 170.03575134 C-68.92373738 165.14039062 -63.70462688 159.83651502 -58.44335938 154.55688477 C-57.2995518 153.41279461 -56.15552298 152.26892561 -55.0112915 151.1252594 C-51.92697662 148.04122973 -48.84574021 144.95414129 -45.76507378 141.86646771 C-42.53712047 138.63223484 -39.30630782 135.40086079 -36.07580566 132.16917419 C-29.96834881 126.05861755 -23.86344411 119.94551777 -17.75946665 113.83148569 C-10.80613979 106.8669556 -3.84995057 99.90528743 3.10647297 92.94385064 C17.40748821 78.63240163 31.70492972 64.317387 46 50 C44.39656373 46.61982162 42.61871035 44.35077936 39.98095703 41.67456055 C39.15314728 40.8307634 38.32533752 39.98696625 37.47244263 39.11759949 C36.57661469 38.21640884 35.68078674 37.3152182 34.7578125 36.38671875 C33.37793655 34.99330009 33.37793655 34.99330009 31.97018433 33.57173157 C30.02533307 31.61042188 28.07615875 29.6535207 26.12451172 27.69897461 C23.62183502 25.19089454 21.13574271 22.66702877 18.65326118 20.13897991 C16.28247311 17.73136678 13.89406421 15.3415055 11.5078125 12.94921875 C10.61603302 12.03790695 9.72425354 11.12659515 8.80545044 10.18766785 C7.97133636 9.3596315 7.13722229 8.53159515 6.27783203 7.6784668 C5.5466214 6.94218552 4.81541077 6.20590424 4.06204224 5.4473114 C2.12321769 3.75927046 2.12321769 3.75927046 -0.1579895 4.17243958 C-2.26869426 5.12071633 -3.49003463 6.26353983 -5 8 C-5.99 7.505 -5.99 7.505 -7 7 C-4.69 4.69 -2.38 2.38 0 0 Z " fill="#004156" transform="translate(2804,416)"/>
<path d="M0 0 C0.99 0.495 0.99 0.495 2 1 C-23.08 26.08 -48.16 51.16 -74 77 C-74.66 76.67 -75.32 76.34 -76 76 C-74.6731494 74.47350752 -73.33808862 72.95415113 -72 71.4375 C-71.2575 70.59058594 -70.515 69.74367188 -69.75 68.87109375 C-67.75777543 66.79114338 -65.86892289 65.00782356 -63.68359375 63.16992188 C-57.25111153 57.57408342 -51.32509749 51.44810205 -45.3125 45.41015625 C-44.00135899 44.09714694 -42.68999463 42.78436063 -41.37841797 41.4717865 C-37.95022763 38.03980344 -34.52505278 34.60482651 -31.1005249 31.16918945 C-27.59619796 27.65457813 -24.08898917 24.14284511 -20.58203125 20.63085938 C-13.71855143 13.75669956 -6.85825799 6.87936931 0 0 Z " fill="#001D24" transform="translate(2793,523)"/>
<path d="M0 0 C0.99 0.495 0.99 0.495 2 1 C-22.75 25.75 -47.5 50.5 -73 76 C-73.66 75.67 -74.32 75.34 -75 75 C-73.6731494 73.47350752 -72.33808862 71.95415113 -71 70.4375 C-70.2575 69.59058594 -69.515 68.74367188 -68.75 67.87109375 C-66.75418813 65.78739812 -64.85903576 63.99850094 -62.66992188 62.15625 C-56.31955907 56.6319437 -50.4668303 50.58995642 -44.53125 44.62890625 C-43.24252928 43.33831715 -41.95358515 42.0479511 -40.66442871 40.75779724 C-37.29542172 37.38499816 -33.92943045 34.00920538 -30.56408691 30.63275146 C-27.12008377 27.17846255 -23.67319751 23.72705315 -20.2265625 20.27539062 C-13.48157161 13.51972087 -6.73976742 6.76088066 0 0 Z " fill="#001C23" transform="translate(2589,726)"/>
<path d="M0 0 C5.96118297 4.93997261 11.41486302 10.28529862 16.87109375 15.7734375 C18.25458763 17.1590538 18.25458763 17.1590538 19.66603088 18.57266235 C22.09633814 21.00675431 24.52362496 23.44383597 26.95025635 25.8815918 C29.43569364 28.3773311 31.92402932 30.87017708 34.41210938 33.36328125 C39.27755096 38.2393886 44.13980198 43.11866631 49 48 C48.505 48.99 48.505 48.99 48 50 C47.43259094 49.42148788 46.86518188 48.84297577 46.28057861 48.24693298 C40.93763763 42.80391127 35.58285699 37.37295354 30.21428299 31.95522213 C27.45448567 29.16930301 24.69954166 26.37891341 21.95507812 23.57788086 C19.30757533 20.87615105 16.64813181 18.18673075 13.97988129 15.50549507 C12.96278649 14.47914368 11.95011159 13.44839316 10.94193268 12.41328239 C9.53189044 10.96708181 8.10470075 9.53765954 6.67675781 8.10913086 C5.8684552 7.28972519 5.06015259 6.47031952 4.22735596 5.62608337 C2.1641113 3.7544285 2.1641113 3.7544285 -0.18292236 4.14552307 C-2.25787394 5.12126468 -3.50266721 6.27806729 -5 8 C-5.66 7.67 -6.32 7.34 -7 7 C-4.69 4.69 -2.38 2.38 0 0 Z " fill="#002F40" transform="translate(2804,416)"/>
<path d="M0 0 C0.50435694 1.9363704 1.00333874 3.87414146 1.5 5.8125 C1.7784375 6.89144531 2.056875 7.97039062 2.34375 9.08203125 C3 12 3 12 3 15 C2.34 15 1.68 15 1 15 C-0.485 8.07 -0.485 8.07 -2 1 C-3.67449219 1.433125 -5.34898437 1.86625 -7.07421875 2.3125 C-9.27856617 2.87531211 -11.48299768 3.43779493 -13.6875 4 C-14.79029297 4.28617188 -15.89308594 4.57234375 -17.02929688 4.8671875 C-18.09599609 5.13789062 -19.16269531 5.40859375 -20.26171875 5.6875 C-21.73064575 6.06455078 -21.73064575 6.06455078 -23.22924805 6.44921875 C-25.9029135 6.98070075 -28.28313734 7.10407774 -31 7 C-30.67 6.34 -30.34 5.68 -30 5 C-25.81358488 3.63640561 -21.48039318 2.78142172 -17.1875 1.8125 C-15.98544922 1.52697266 -14.78339844 1.24144531 -13.54492188 0.94726562 C-12.38927734 0.68236328 -11.23363281 0.41746094 -10.04296875 0.14453125 C-8.98102295 -0.09934326 -7.91907715 -0.34321777 -6.82495117 -0.59448242 C-4.12201812 -0.98248448 -2.54458498 -0.89644446 0 0 Z " fill="#005C73" transform="translate(3289,1218)"/>
<path d="M0 0 C3.7952131 1.49097658 5.61042731 3.75700849 8 7 C4 7 4 7 1.75 5.1875 C0 3 0 3 0 0 Z " fill="#0087FF" transform="translate(2471,975)"/>
<path d="M0 0 C0.66 0 1.32 0 2 0 C0.59155282 3.21524305 -1.10344786 5.32183868 -3.625 7.75 C-4.57246094 8.67039062 -4.57246094 8.67039062 -5.5390625 9.609375 C-6.02117188 10.06828125 -6.50328125 10.5271875 -7 11 C-7.66 10.67 -8.32 10.34 -9 10 C-7.5484451 8.32742645 -6.08855591 6.66208242 -4.625 5 C-3.81289062 4.071875 -3.00078125 3.14375 -2.1640625 2.1875 C-1.44992188 1.465625 -0.73578125 0.74375 0 0 Z " fill="#00303B" transform="translate(2523,791)"/>
<path d="M0 0 C0.66 0 1.32 0 2 0 C0.59155282 3.21524305 -1.10344786 5.32183868 -3.625 7.75 C-4.57246094 8.67039062 -4.57246094 8.67039062 -5.5390625 9.609375 C-6.02117188 10.06828125 -6.50328125 10.5271875 -7 11 C-7.66 10.67 -8.32 10.34 -9 10 C-7.5484451 8.32742645 -6.08855591 6.66208242 -4.625 5 C-3.81289062 4.071875 -3.00078125 3.14375 -2.1640625 2.1875 C-1.44992188 1.465625 -0.73578125 0.74375 0 0 Z " fill="#00303B" transform="translate(2726,589)"/>
<path d="M0 0 C0.66 0.33 1.32 0.66 2 1 C2 1.66 2 2.32 2 3 C-0.88229224 4.92152816 -3.90127153 6.46387819 -7 8 C-6.02133662 6.85373678 -5.04205413 5.70800212 -4.0625 4.5625 C-3.51722656 3.92441406 -2.97195312 3.28632813 -2.41015625 2.62890625 C-1.63204305 1.73008851 -0.84063472 0.84063472 0 0 Z " fill="#00414E" transform="translate(2804,416)"/>
</svg>
